<svg xmlns="http://www.w3.org/2000/svg" viewBox="-49 220.451 570 353.098"><path d="M521 543.282c0 16.716-15.085 30.267-33.693 30.267H-15.307C-33.915 573.55-49 559.997-49 543.282V250.717c0-16.715 15.085-30.266 33.693-30.266h502.613c18.609 0 33.693 13.551 33.693 30.266L521 543.282z" fill="#306fc5"/><path d="M-27.483 543.282V250.717c0-16.715 13.552-30.266 30.267-30.266h-21.52c-16.715 0-30.265 13.55-30.265 30.266v292.565c0 16.716 13.55 30.267 30.265 30.267h21.52c-16.714.001-30.267-13.552-30.267-30.267z" opacity=".15" fill="#202121"/><g fill="#fff"><path d="M31.943 363.068h17.058l-8.527-21.709zm90.714 72.878v10.081h28.689v10.857h-28.689v11.633h31.789l14.731-16.286-13.955-16.285zm224.069-94.587l-9.305 21.709h17.835zM205.619 474.713V430.52l-20.16 21.711zm37.991-31.786c-.776-4.652-3.881-6.981-8.535-6.981h-16.278v13.956h17.059c4.651.001 7.754-2.324 7.754-6.975zm54.268 5.428c1.551-.777 2.33-3.105 2.33-5.427.776-3.099-.778-4.652-2.33-5.428-1.546-.776-3.876-.776-6.198-.776h-15.51v12.407h15.509c2.322 0 4.652 0 6.199-.776z"/><path d="M409.524 321.199v9.304l-4.649-9.304h-36.437v9.304l-4.654-9.304h-49.621c-8.527 0-15.509 1.553-21.709 4.653v-4.653h-34.888v4.653c-3.876-3.1-8.528-4.653-14.73-4.653H118.007l-8.532 19.383-8.526-19.383H61.406v9.304l-3.877-9.304H23.415L7.907 357.638l-17.831 39.541-.328.777h40.365l.28-.777 4.654-11.628h10.079l4.652 12.405h44.964v-9.303l3.88 9.303h22.482l3.875-9.303v9.303h107.772v-20.16h1.554c1.549 0 1.549 0 1.549 2.327v17.056h55.824v-4.652c4.652 2.33 11.625 4.652 20.931 4.652h23.263l4.652-12.402h10.852l4.652 12.402h44.967v-11.628l6.981 11.628h36.439v-75.982h-34.891v.002zm-262.832 65.13h-12.406v-42.645l-.776 1.778v-.021l-18.037 40.888h-11.426l-18.606-42.645v42.645h-26.36l-5.427-11.63H27.29l-5.429 11.63H8.233l22.936-54.274h19.382l21.709 51.946v-51.946h20.541l.366.777h.027l9.782 21.291 7.025 15.952.248-.804 15.506-37.214h20.935v54.273h.002zm53.5-42.644h-30.239v10.079h29.462v10.853h-29.462v10.858h30.239v11.626h-43.418v-55.046h43.418v11.63zm55.3 19.992c.02.017.046.03.071.047.293.31.544.621.758.918 1.486 1.947 2.686 4.843 2.747 9.088.005.073.007.146.012.22 0 .042.007.079.007.123l-.002.067c.017.427.029.863.029 1.334v10.855h-11.628v-6.205c0-3.101 0-7.754-2.33-10.855a7.072 7.072 0 0 0-2.281-1.559c-1.162-.752-3.365-.764-7.02-.764h-13.96v19.383h-13.178v-54.274h29.465c6.974 0 11.628 0 15.506 2.326 3.799 2.281 6.094 6.065 6.181 12.056-.18 8.251-5.476 12.778-9.283 14.305 0 0 2.586.521 4.906 2.935zm26.108 22.652h-13.182v-54.274H281.6v54.274zm151.191 0h-17.06l-24.809-41.095v34.115l-.082-.081v7.094h-13.098v-.032H364.56l-4.652-11.63h-27.139l-4.652 12.402h-14.73c-6.198 0-13.957-1.549-18.606-6.2-4.652-4.652-6.976-10.855-6.976-20.932 0-7.753 1.549-15.511 6.976-21.712 3.873-4.655 10.855-6.202 19.382-6.202h12.408v11.629h-12.408c-4.652 0-6.974.773-10.081 3.103-2.322 2.325-3.873 6.976-3.873 12.402 0 6.204.776 10.08 3.873 13.18 2.332 2.329 5.43 3.105 9.306 3.105h5.427l17.831-42.642h19.385l21.712 51.946v-51.946h19.382l22.48 37.99v-37.99h13.187v53.496h-.001z"/><path d="M244.436 354.659c.226-.242.432-.516.606-.83.702-1.112 1.508-3.114 1.074-5.847a4.19 4.19 0 0 0-.117-.707c-.015-.062-.012-.117-.029-.18l-.007.001c-.386-1.328-1.37-2.145-2.353-2.64-1.554-.773-3.881-.773-6.205-.773h-15.509v12.407h15.509c2.325 0 4.652 0 6.205-.777a2.93 2.93 0 0 0 .64-.46l.002.01c.001 0 .08-.083.184-.204zm234.095 109.203c0-5.427-1.549-10.856-3.873-14.732v-34.888h-.036v-2.329h-37.334c-4.835 0-10.702 4.65-10.702 4.65v-4.65h-35.664c-5.43 0-12.403 1.553-15.509 4.65v-4.65h-63.575v4.65c-4.649-3.873-13.184-4.65-17.057-4.65h-41.868v4.65c-3.876-3.873-13.184-4.65-17.838-4.65h-46.513l-10.857 11.631-10.08-11.631H97.848v78.312h68.229l11.211-11.214 9.718 11.214h43.422v-17.832h3.88c5.422 0 12.403 0 17.831-2.33V491h34.891v-20.159h1.546c2.33 0 2.33 0 2.33 2.326V491h105.441c6.984 0 13.957-1.554 17.833-4.655V491h33.342c6.974 0 13.957-.774 18.609-3.878 7.139-4.283 11.638-11.863 12.307-20.906.031-.268.071-.535.094-.804l-.046-.043c.025-.504.045-1 .045-1.507zm-244.225-4.65h-15.51v20.157h-25.484L178.48 462.31l-.051.057-.725-.834-17.056 17.836h-49.62v-54.273h50.397l13.769 15.08 2.894 3.157.392-.407 16.284-17.831h41.091c7.975 0 16.905 1.968 20.289 10.083.407 1.607.643 3.393.643 5.422-.001 15.508-10.855 18.612-22.481 18.612zm77.532-.777c1.549 2.321 2.325 5.427 2.325 10.081v10.852h-13.179v-6.976c0-3.106 0-8.53-2.33-10.859-1.546-2.321-4.652-2.321-9.301-2.321h-13.955v20.156H262.22V424.32h29.461c6.198 0 11.625 0 15.509 2.323 3.873 2.328 6.974 6.205 6.974 12.408 0 8.526-5.425 13.179-9.303 14.732 3.877 1.546 6.202 3.101 6.977 4.652zm53.5-22.489h-30.242v10.08h29.463v10.857h-29.463v10.856h30.242v11.629H321.92V424.32h43.418v11.626zm32.561 43.423h-24.812V467.74h24.812c2.322 0 3.876 0 5.43-1.553.776-.777 1.546-2.325 1.546-3.877 0-1.554-.771-3.098-1.546-3.875-.778-.774-2.332-1.551-4.657-1.551-12.406-.776-27.136 0-27.136-17.055 0-7.754 4.652-16.284 18.609-16.284h25.585v13.179h-24.034c-2.325 0-3.878 0-5.43.776-1.546.777-1.546 2.33-1.546 3.878 0 2.327 1.546 3.103 3.098 3.872 1.554.777 3.103.777 4.652.777h6.979c6.979 0 11.63 1.551 14.73 4.653 2.327 2.327 3.878 6.204 3.878 11.63-.001 11.628-6.979 17.059-20.158 17.059zm66.677-5.431c-3.098 3.105-8.527 5.431-16.284 5.431h-24.804V467.74h24.804c2.327 0 3.881 0 5.43-1.553.773-.777 1.551-2.325 1.551-3.877 0-1.554-.778-3.098-1.551-3.875-.776-.774-2.325-1.551-4.652-1.551-12.401-.776-27.136 0-27.136-17.055 0-7.37 4.216-14.025 14.614-16.003a29.021 29.021 0 0 1 3.995-.282h25.587v13.179h-24.036c-2.327 0-3.876 0-5.425.776-.781.777-1.556 2.33-1.556 3.878 0 2.327.776 3.103 3.105 3.872 1.549.777 3.1.777 4.652.777h6.976c3.388 0 5.951.418 8.295 1.242 2.147.777 9.257 3.958 10.847 12.258.138.87.24 1.777.24 2.783 0 4.655-1.552 8.531-4.652 11.629z"/></g></svg>