<svg xmlns="http://www.w3.org/2000/svg" viewBox="-49 220.451 570 353.098"><path d="M521 543.282c0 16.716-15.085 30.267-33.693 30.267H-15.307C-33.915 573.55-49 559.997-49 543.282V250.717c0-16.715 15.085-30.266 33.693-30.266h502.613c18.609 0 33.693 13.551 33.693 30.266L521 543.282z" fill="#084d95"/><g fill="#fff"><path d="M172.759 333.372c0 19.84 12.161 36.481 29.442 42.879v-85.758c-17.281 6.399-29.442 23.04-29.442 42.879zm62.079-42.879v85.758c17.281-6.398 29.441-23.679 29.441-42.879 0-19.839-12.16-36.48-29.441-42.879zm0 85.758c17.281-6.398 29.441-23.679 29.441-42.879"/><path d="M255.959 254.013h-37.121c-44.161 0-80 32.641-80 80 0 43.52 35.839 78.719 80 78.719h37.121c43.519 0 83.199-35.199 83.199-78.719-.641-47.359-40.32-80-83.199-80zm-37.121 151.68c-40.321 0-72.321-32.641-72.321-72.321 0-40.32 32.641-72.961 72.321-72.961 40.32 0 72.961 32.641 72.961 72.961-.641 40.321-33.282 72.321-72.961 72.321zM56.92 467.134c0 6.399 4.48 7.039 8.961 7.039 17.918 0 24.32-13.441 24.32-26.238 0-16-10.242-26.883-26.242-26.883-3.2 0-5.121 0-6.399.641v45.441h-.64zm-8.321-39.68c0-7.679-3.84-7.043-7.679-7.043v-1.918h24.32c21.758 0 33.277 14.719 33.277 29.442 0 8.316-5.117 29.437-34.558 29.437h-23.68v-1.918c5.121-.64 7.68-.64 7.68-6.402v-41.598h.64zm62.719-1.921c-1.918 0-3.84-1.918-3.84-4.481 0-1.918 1.922-3.84 3.84-3.84 1.922 0 3.84 1.922 3.84 3.84 0 2.563-1.918 4.481-3.84 4.481m-8.961 49.281h1.922c2.559 0 3.84 0 3.84-2.563v-23.039c0-3.84-1.281-4.48-4.481-5.758v-1.281c3.84-1.281 8.321-2.558 8.961-3.199.641-.641 1.282-.641 1.282-.641.636 0 .636.641.636 1.282v32c0 2.558 1.922 2.558 4.481 2.558h1.281v1.918h-17.922v-1.277zm25.602-24.961c0-3.199-.641-3.84-5.121-5.762v-1.277c3.839-1.281 7.043-2.563 10.882-3.84 0 0 .637 0 .637.641v5.757c4.481-3.199 8.961-6.398 14.723-6.398 7.039 0 9.597 5.117 9.597 11.519v21.758c0 2.563 1.922 2.563 4.481 2.563h1.281v1.918h-17.922v-1.918h1.282c2.558 0 3.839 0 3.839-2.563v-21.758c0-4.48-3.199-7.039-7.679-7.039-2.559 0-7.039 1.918-9.602 3.84v24.957c0 2.563 1.922 2.563 4.481 2.563h1.281v1.918h-17.918v-1.918h1.918c2.558 0 3.84 0 3.84-2.563v-22.398zm57.601 1.281c1.918 0 2.559-1.281 2.559-1.922 0-4.48-2.559-7.679-7.039-7.679-5.121 0-8.961 3.839-9.602 9.601h14.082zm-14.722 2.559v5.121c.64 7.679 5.761 14.719 12.16 14.719 4.48 0 8.32-2.559 11.519-5.758l1.282 1.277c-3.84 5.121-8.961 9.602-15.36 9.602-13.441 0-16-12.801-16-18.563 0-16.637 10.879-21.117 16.641-21.117 7.039 0 14.078 4.48 14.078 13.437v1.282h-24.32zm26.242 21.121h2.558c2.563 0 3.84 0 3.84-2.563v-23.679c0-2.559-3.199-3.2-4.48-3.84v-1.278c6.402-2.562 9.601-4.48 10.242-4.48s.641 0 .641 1.277v7.684c1.918-3.203 5.757-8.32 10.878-8.32 1.918 0 4.481 1.277 4.481 4.476 0 2.563-1.281 4.481-3.84 4.481-2.562 0-2.562-1.918-5.762-1.918-1.281 0-6.398 1.918-6.398 7.039v19.84c0 2.558 1.918 2.558 3.84 2.558h4.48v1.922h-21.761v-3.199h1.281zm32.64-9.602c1.278 5.762 4.481 10.242 10.879 10.242 5.121 0 7.039-3.203 7.039-5.761 0-9.602-18.558-6.399-18.558-20.481 0-4.48 3.84-10.879 12.801-10.879 2.558 0 6.398.641 9.597 2.559l.641 8.32h-1.918c-.641-5.121-3.844-8.32-8.961-8.32-3.199 0-6.402 1.922-6.402 5.762 0 9.597 19.203 7.039 19.203 19.839 0 5.758-4.481 11.52-14.723 11.52-3.199 0-7.039-1.281-10.238-2.559l-.641-9.601 1.281-.641zm99.84-32h-1.922c-1.281-9.597-8.32-13.437-17.918-13.437-9.601 0-23.679 6.398-23.679 26.879 0 16.64 12.16 28.8 24.957 28.8 8.32 0 15.359-5.761 16.64-14.722l1.922.64-1.922 12.161c-3.839 1.921-12.8 4.48-18.558 4.48-19.84 0-32-12.801-32-31.359 0-17.282 15.359-29.442 32-29.442 7.039 0 13.437 1.922 19.84 4.481l.64 11.519zm3.199 41.602h1.282c2.558 0 3.84 0 3.84-2.563v-46.718c0-5.758-1.282-5.758-4.481-6.399v-1.281c3.199-1.281 7.039-2.559 8.957-3.84.641-.641 1.281-.641 1.922-.641s.641.641.641 1.282v58.238c0 2.562 1.918 2.562 4.48 2.562h1.277v1.918h-17.918v-2.558zm53.758-2.563c0 1.282.641 1.282 2.563 1.282h3.199v1.921c-3.84.637-10.238 1.918-12.16 2.559h-.641v-7.039c-5.121 3.84-8.961 7.039-14.719 7.039-4.48 0-8.96-3.199-8.96-10.238v-21.762c0-1.922-.641-4.48-5.122-4.48v-1.282c3.204 0 9.602-.636 10.883-.636.641 0 .641.636.641 2.558v21.762c0 2.558 0 9.598 7.039 9.598 2.559 0 6.398-1.918 10.238-5.122v-22.398c0-1.922-3.84-2.559-7.039-3.199v-1.281c7.68-.641 12.16-1.282 12.801-1.282s.641.641.641 1.282v30.718h.636zm16.641-5.117c0 3.199 3.199 8.32 8.961 8.32 8.961 0 12.801-8.961 12.801-16 0-8.961-7.039-16.64-13.442-16.64-3.199 0-5.758 1.918-7.679 3.84v20.48h-.641zm0-22.402c3.199-2.559 7.68-5.758 12.801-5.758 9.601 0 15.359 8.32 15.359 17.918 0 10.883-8.32 21.762-19.84 21.762-6.398 0-9.597-1.922-11.519-3.2l-2.559 1.918-1.922-.64c.641-5.117 1.281-9.598 1.281-14.719v-35.84c0-5.762-1.281-5.762-4.48-6.398v-1.282c3.199-1.281 7.039-2.558 8.961-3.839.641-.641 1.277-.641 1.918-.641s.641.641.641 1.281v29.438h-.641zM40.92 525.372h.64c1.918 0 3.199 0 3.199-2.558v-23.68c0-2.562-1.921-2.562-3.199-2.562h-.64v-1.278h14.078v1.278h-.641c-1.918 0-3.199 0-3.199 2.562v23.68c0 2.558 1.281 2.558 3.199 2.558h.641v1.282H41.56v-1.282h-.64zm0 0"/><path d="M54.998 526.654v-1.282h-.641c-1.918 0-3.84 0-3.84-2.558v-23.68c0-2.562 1.922-2.562 3.84-2.562h.641v-1.278H41.56v1.278h.641c1.918 0 3.84 0 3.84 2.562v23.68c0 2.558-1.922 2.558-3.84 2.558h-.641v1.282h13.438m0 .64H41.56v-1.922h.641c1.918 0 3.199 0 3.199-2.558v-23.68c0-2.562-1.281-2.562-3.199-2.562H40.92v-1.278h14.078v1.278h-.641c-1.918 0-3.199 0-3.199 2.562v23.68c0 2.558 1.281 2.558 3.199 2.558h.641v1.922zm31.359-9.601v-17.282c0-3.839-2.558-4.476-3.84-4.476H81.24v-1.281H93.4v1.281h-.641c-1.921 0-3.839.637-3.839 5.758v24.961h-1.922l-23.68-26.243v18.563c0 3.84.641 5.117 4.481 5.117h.64v1.281h-12.16.641c3.199 0 3.839-1.918 3.839-5.757v-19.204c0-2.558-1.921-3.839-3.839-3.839v-1.278h8.961l20.476 22.399zm0 0"/><path d="M86.357 517.693zm0 0zm.641 9.601h1.281v-24.961c0-5.761 2.559-5.761 4.48-5.761h.641v-1.278H81.881v1.278h.636c1.282 0 4.481.64 4.481 4.48v17.281l-20.481-23.039H57.56v1.278h.641c1.918 0 4.476 1.921 4.476 4.48v19.199c0 3.84-1.277 5.762-4.476 5.762h-.641v1.281h11.52v-1.281h-1.281c-3.84 0-4.481-1.281-4.481-5.762v-19.199l23.68 26.242zm1.922.641h-1.922l-23.039-25.602v18.559c0 3.84.64 5.121 3.84 5.121h1.281v1.281H56.92v-1.922h.64c3.199 0 3.84-1.918 3.84-5.757v-19.204c0-2.558-1.922-3.839-3.84-3.839h-1.281v-1.278h9.602l19.839 22.399v-16.641c0-3.84-2.562-3.84-3.839-3.84h-.641v-1.277H93.4v1.277h-.641c-1.921 0-3.839 0-3.839 5.762v24.961zm11.519-30.723c-3.199 0-3.84.641-4.48 3.84h-1.282c0-1.277.641-2.559.641-3.84v-3.84h1.281c.641 1.282 1.282 1.282 2.559 1.282h23.68c1.281 0 2.562 0 2.562-1.282h1.277c0 1.282-.636 2.563-.636 3.84v3.84l-1.282.641c0-1.918 0-4.481-3.199-4.481h-7.679v24.321c0 3.199 1.277 3.839 3.839 3.839h.637v1.282h-15.359v-1.282h.64c2.563 0 3.84 0 3.84-3.839v-24.321h-7.039zm0 0"/><path d="M118.357 527.294h-15.359v-1.922h.64c2.563 0 3.84 0 3.84-3.839v-24.321h-7.039 7.68v24.321c0 3.839-1.281 3.839-3.84 3.839h-.641v1.282h7.68c1.922 0 5.121 0 7.039.64v-1.281h-.637c-1.921 0-3.839-.641-3.839-3.84v-24.32h7.679c3.199 0 3.199 2.558 3.84 4.48l1.277-.64v-3.84c0-1.281 0-2.559.641-3.199h-.641c0 1.281-1.277 1.281-2.558 1.281h-23.68c-1.281 0-2.558 0-2.558-1.281h-1.922v3.839c0 1.282-.641 2.559-.641 3.84h1.281c.641-3.199 1.282-4.48 4.481-3.84-3.199 0-3.199.641-3.84 3.84h-2.563c0-1.281.641-2.558.641-3.84v-3.839h1.281c0 1.281 1.282 1.281 2.559 1.281h23.68c1.281 0 1.921 0 2.562-1.281h1.277c0 1.281-.636 2.558-.636 3.839v3.84h-1.922c0-1.922 0-4.48-3.199-4.48h-7.039v24.32c0 3.199 1.277 3.84 3.839 3.84h1.278l-.641 1.281zm9.602-1.922h.64c1.918 0 3.2 0 3.2-2.558v-23.68c0-2.562-1.918-2.562-3.2-2.562h-.64v-1.278h23.039v7.039h-1.278c0-3.199-.64-5.121-5.761-5.121h-6.399v12.16h5.758c2.563 0 3.199-1.281 3.84-3.839h1.281v10.242h-1.281c0-2.563-.641-4.481-3.84-4.481h-5.758v10.879c0 3.199 2.559 3.199 5.758 3.199 5.762 0 7.68-.64 9.602-5.757h1.281c-.641 2.558-1.281 5.117-1.281 7.039h-24.321v-1.282h-.64zm0 0"/><path d="M152.279 526.654c.641-2.563.641-4.481 1.281-7.039h-.64c-1.282 5.117-3.84 5.757-9.602 5.757-2.559 0-5.758 0-5.758-3.199v-10.879h5.758c3.199 0 3.199 1.918 3.84 4.481h1.281v-10.242h-1.281c0 2.558-1.277 3.839-3.84 3.839h-5.758v-12.16h6.399c4.48 0 5.761 2.563 5.761 5.121h1.278v-6.398h-22.399v1.277h.641c1.918 0 3.84 0 3.84 2.563v23.679c0 2.559-1.922 2.559-3.84 2.559h-.641v1.281h12.16c3.2-.64 8.321-.64 11.52-.64m0 .64h-24.32v-1.922h.64c1.918 0 3.2 0 3.2-2.558v-23.68c0-1.922-1.282-2.562-3.2-2.562h-.64v-1.278h23.039v7.039l-1.278.641c0-3.199-.64-5.121-5.121-5.121h-6.398v11.519h5.117c2.563 0 3.199-1.281 3.199-3.839h1.282v10.242h-1.282c0-2.563-.636-4.481-3.199-4.481h-5.117v10.239c0 2.558 2.558 2.558 5.117 2.558 5.762 0 7.68 0 8.961-5.117l1.281.641c0 2.558-.64 5.117-1.281 7.679zm13.441-16.64h1.918c4.481 0 7.039-1.922 7.039-7.039 0-3.84-2.558-6.403-6.398-6.403h-2.559v13.442zm-5.761-10.879c0-3.203-1.918-3.203-3.2-3.203h-.64v-1.278h14.082c5.758 0 10.879 1.278 10.879 8.321 0 3.839-2.563 6.398-6.403 8.32l7.68 11.519c1.281 1.918 1.922 2.559 4.481 2.559v1.281h-8.957c-3.204-4.48-6.403-9.601-9.602-14.722h-3.199v9.601c0 3.199 1.918 3.84 3.84 3.84h.64v1.281h-14.082v-1.922h.641c1.922 0 3.199-.64 3.199-2.558v-23.039h.641zm0 0"/><path d="M168.279 510.654c4.48 0 7.039-1.282 7.039-7.039 0-3.84-2.559-6.403-6.398-6.403h-2.563v13.442h1.922zm-2.559 0v-14.082h2.559c3.84 0 7.039 2.562 7.039 7.043 0 5.757-2.559 7.039-7.039 7.039h-2.559zm0 1.281h3.2c3.199 5.117 5.757 10.238 9.597 14.719h8.961v-1.282c-1.918 0-3.199-.64-4.48-2.558l-7.68-12.16c3.84-1.282 6.402-3.84 6.402-7.68 0-6.402-5.121-7.68-10.882-7.68h-14.079v1.278h.641c1.277 0 3.199 0 3.199 3.839v23.043c0 1.918-1.922 2.559-3.199 2.559h-1.281v1.281h14.082v-1.281h-.641c-1.922 0-3.84 0-3.84-3.84v-10.238zm21.758 15.359h-8.961c-3.199-4.48-6.398-9.601-9.597-14.722h-2.563v9.601c0 3.199 1.281 3.199 3.844 3.199h1.277v1.282H157.4v-1.282h.641c1.918 0 3.199-.64 3.199-2.558v-23.039c0-3.203-1.922-3.203-3.199-3.203h-1.922v-1.278h14.082c5.758 0 10.879 1.918 10.879 8.321 0 3.839-2.563 6.398-6.403 8.32l7.68 11.519c1.281 1.918 1.922 2.559 4.481 2.559l.64 1.281zm30.723-9.601v-17.282c0-3.839-2.563-4.476-3.844-4.476h-1.277v-1.281h12.16v1.281h-.641c-1.922 0-3.84.637-3.84 5.758v24.961h-1.921l-23.68-26.243v18.563c0 3.84.641 5.117 4.48 5.117h1.282v1.281h-12.161.641c3.199 0 3.84-1.918 3.84-5.757v-19.204c0-2.558-1.922-3.839-4.481-3.839h-.64v-1.278h8.961l21.121 22.399zm0 0"/><path d="M218.201 517.693zm0 0zm.637 9.601h1.281v-24.961c0-5.761 2.558-5.761 4.48-5.761h.641v-1.278h-11.52v1.278h.637c1.281 0 4.481.64 4.481 4.48v17.281l-20.481-23.039H189.4v1.278h.641c1.918 0 4.476 1.921 4.476 4.48v19.199c0 3.84-1.277 5.762-4.476 5.762h-.641v1.281h11.52v-1.281h-.641c-3.84 0-4.48-1.281-4.48-5.762v-19.199l23.039 26.242zm1.921.641h-1.921l-23.039-25.602v18.559c0 3.84.64 5.121 3.839 5.121h1.282v1.281h-12.161v-1.922h.641c3.199 0 3.84-1.918 3.84-5.757v-19.204c0-2.558-1.922-3.839-3.84-3.839h-1.281v-1.278h9.601l19.84 22.399v-16.641c0-3.84-2.562-3.84-3.84-3.84h-1.281v-1.277h12.16v1.277h-.64c-1.918 0-3.84 0-3.84 5.762v20.48c.64 1.278.64 2.559.64 4.481zm18.559-27.524l-4.48 12.801h8.32l-3.84-12.801zm-6.398 19.84c-.641 1.282-1.282 2.563-1.282 3.84 0 1.281 1.922 1.281 3.2 1.281h.64v1.282h-10.879v-1.282c1.918 0 3.2-1.281 3.84-3.199l7.039-21.121 1.922-5.758c1.277-.64 3.199-1.281 4.481-1.922h.636c0 .641 0 .641.641 1.282l8.961 24.32c.64 1.277 1.281 3.199 1.922 4.48.636 1.278 1.277 1.918 3.199 1.918v1.282h-13.441v-1.282h.64c1.281 0 2.559 0 2.559-1.281 0-.637-.641-1.918-.641-3.199l-1.918-5.117h-10.238l-1.281 4.476zm0 0"/><path d="M239.318 500.411zm-3.84 12.801h8.321l-4.481-12.801-3.84 12.801zm-.64 0l4.48-13.437 4.481 13.437h-8.961zm8.961 13.442h12.8v-1.282c-1.281 0-2.558-.64-3.199-1.918-.641-.64-1.281-2.562-1.281-4.48l-8.32-23.68c0-.64 0-.64-.641-1.281-.641.641-2.559 1.281-3.84 1.922 0 1.918-1.277 3.84-1.918 5.758l-7.043 21.121c-.637 1.918-2.558 3.199-4.476 3.199v1.281h9.597v-1.281c-1.277 0-3.84 0-3.84-1.922 0-.637.641-1.918 1.282-3.84l1.281-5.117h10.879l1.918 5.117c.64 1.282.64 2.563.64 3.203 0 1.278-1.918 1.278-3.199 1.278v1.922h-.64zm13.441.64h-13.441v-1.922h.64c1.281 0 2.559 0 2.559-1.281 0-.637-.641-1.918-.641-3.199l-1.918-5.117h-10.238l-1.281 4.476c-.641 1.282-1.282 2.563-1.282 3.203 0 1.278 1.922 1.278 3.2 1.278h.64v1.281h-10.879v-.641c1.918 0 3.2-1.281 3.84-2.558l7.039-21.121 1.922-5.758c1.277-.641 3.199-1.281 3.84-1.922h1.277c0 .641 0 .641.641 1.281l8.961 23.68c.64 1.918 1.281 3.199 1.922 4.48.636 1.278 1.277 1.918 2.558 1.918h.641v1.922zm1.918-30.082c-3.199 0-3.84.641-4.481 3.84H253.4c0-1.277.641-2.559.641-3.84v-3.84h1.277c.641 1.282 1.281 1.282 2.563 1.282h23.679c1.278 0 2.559 0 2.559-1.282h1.281c0 1.282-.641 2.563-.641 3.84v3.84l-1.281.641c0-1.918-.64-4.481-3.199-4.481h-7.68v24.321c0 3.199 1.282 3.839 3.84 3.839h.641v1.282h-15.36v-1.282h.637c2.563 0 3.844 0 3.844-3.839v-24.321h-7.043zm0 0"/><path d="M277.08 527.294h-15.36v-1.922h.637c2.563 0 3.203 0 3.844-3.839v-24.321h-7.043 7.68v24.321c0 3.839-1.278 3.839-3.84 3.839h-.641v1.282h7.684c1.918 0 5.117 0 7.039.64v-1.281h-.641c-1.922 0-3.84-.641-3.84-3.84v-24.32h7.68c3.199 0 3.199 2.558 3.84 4.48l1.281-.64v-3.84c0-1.281 0-2.559.641-3.199h-.641c0 1.281-1.281 1.281-2.562 1.281h-23.68c-1.277 0-1.918 0-2.559-1.281h-.64v3.839c0 1.282-.641 2.559-.641 3.84h1.281c.641-3.199 1.282-4.48 4.481-3.84-3.199 0-3.199.641-3.84 3.84h-1.922c0-1.281.641-2.558.641-3.84v-3.839h1.281c0 1.281 1.277 1.281 2.559 1.281h23.679c1.281 0 1.922 0 2.563-1.281h1.277c0 1.281-.641 2.558-.641 3.839v3.84l-1.918.641c0-1.922 0-4.481-3.199-4.481h-7.043v24.321c0 3.199 1.282 3.84 3.84 3.84h1.281l-2.558.64zm0 0"/><path d="M286.677 525.372c2.563 0 3.84 0 3.84-2.558v-23.68c0-2.562-1.918-2.562-3.199-2.562h-.641v-1.278h14.082v1.278h-.64c-1.918 0-3.199 0-3.199 2.562v23.68c0 2.558 1.918 2.558 3.199 2.558h.64v1.282h-13.441v-1.282h-.641zm0 0"/><path d="M300.759 526.654v-1.282h-.64c-1.918 0-3.84 0-3.84-2.558v-23.68c0-2.562 1.922-2.562 3.84-2.562h.64v-1.278h-13.441v1.278h.641c1.922 0 3.84 0 3.84 2.562v23.68c0 2.558-1.918 2.558-3.84 2.558h-.641v1.282h13.441m0 .64h-13.441v-1.922h.641c1.922 0 3.199 0 3.199-2.558v-23.68c0-1.922-1.277-2.562-3.199-2.562h-.641v-1.278H301.4v1.278h-.641c-1.921 0-3.199 0-3.199 2.562v23.68c0 1.918 1.278 2.558 3.199 2.558h.641l-.641 1.922zm19.2-1.922c8.961 0 10.242-7.679 10.242-14.718 0-6.403-3.844-14.719-10.883-14.719-8.32 0-10.238 7.039-10.238 13.437-.641 8.321 3.199 16 10.879 16m-.641-30.718c9.602 0 17.281 5.757 17.281 16 0 10.238-7.679 17.281-17.281 17.281-9.598 0-17.277-6.402-17.277-16.641 0-9.601 7.679-16.64 17.277-16.64"/><path d="M308.439 509.372c0-6.398 2.559-13.437 10.879-13.437 7.68 0 11.52 8.316 11.52 14.719 0 6.398-1.278 14.718-10.879 14.718 8.961 0 10.242-7.679 10.242-14.078 0-6.402-3.844-14.722-10.883-14.722-8.32 0-10.238 7.043-10.879 12.8.641 8.321 3.84 16 11.52 16-7.68.641-11.52-7.679-11.52-16m-6.398 1.922a17.207 17.207 0 0 1 17.277-17.281c-9.598.641-16.641 7.68-17.277 17.281.636 9.598 7.679 16 17.277 16 9.602 0 17.281-7.043 17.281-17.281 0-9.602-7.679-15.359-17.281-15.359 9.602 0 17.922 6.398 17.922 16 0 10.879-7.68 17.918-17.281 17.918-10.239-.637-17.918-7.039-17.918-17.278m65.277 6.399v-17.282c0-3.839-2.559-4.476-3.84-4.476h-1.277v-1.281h12.156v1.281h-.637c-1.921 0-3.839.637-3.839 5.758v24.961h-1.922l-23.68-26.243v18.563c0 3.84.641 5.117 4.48 5.117h.641v1.281h-12.16.641c3.199 0 3.839-1.918 3.839-5.757v-19.204c0-2.558-1.921-3.839-3.839-3.839h-.641v-1.278h8.961l21.117 22.399zm0 0"/><path d="M367.318 517.693zm0 0zm.641 9.601h1.281v-24.961c0-5.761 2.559-5.761 4.48-5.761h.637v-1.278h-11.519v1.278h.64c1.281 0 4.481.64 4.481 4.48v17.281l-20.481-23.039h-8.961v1.278h.641c1.922 0 4.48 1.921 4.48 4.48v19.199c0 3.84-1.281 5.762-4.48 5.762h-.641v1.281h11.524v-1.281h-.641c-3.84 0-4.48-1.281-4.48-5.762v-19.199l23.039 26.242zm1.922.641h-1.922l-23.039-25.602v18.559c0 3.84.64 5.121 3.839 5.121h1.282v1.281h-12.16v-1.922h.636c3.203 0 3.84-1.918 3.84-5.757v-19.204c0-2.558-1.918-3.839-3.84-3.839h-.636v-1.278h9.597l19.84 22.399v-16.641c0-3.84-2.559-3.84-3.84-3.84h-1.277v-1.277h12.156v1.277h-.637c-1.921 0-3.839 0-3.839 5.762v24.961zm18.558-27.524l-4.48 12.801h8.961l-4.481-12.801zm-6.398 19.84c-.641 1.282-1.282 2.563-1.282 3.84 0 1.281 1.918 1.281 3.2 1.281h.64v1.282H373.72v-1.282c1.918 0 3.2-1.281 3.84-3.199l7.039-21.121 1.918-5.758c1.282-.64 3.203-1.281 4.481-1.922h.64c0 .641 0 .641.641 1.282l8.32 23.679c.641 1.282 1.282 3.2 1.918 4.481.641 2.558 1.922 2.558 3.203 2.558v1.282h-13.441v-1.282h.641c1.281 0 2.558 0 2.558-1.281 0-.637-.64-1.918-.64-3.199l-1.918-5.117h-10.243l-.636 4.476zm0 0"/><path d="M388.439 500.411zm-3.84 12.801h7.68l-3.84-12.16-3.84 12.16zm-.64 0l4.48-13.437 4.481 13.437h-8.961zm8.961 13.442h12.8v-1.282c-1.281 0-2.562-.64-3.203-1.918-.636-1.281-1.277-3.203-1.918-4.48l-8.32-23.68c0-.64 0-.64-.641-1.281-.64.641-2.558 1.281-3.839 1.922 0 1.918-1.282 3.84-1.918 5.758l-7.043 21.121c-.637 1.918-2.559 3.199-3.84 3.199v1.281h9.601v-1.281c-1.281 0-3.84 0-3.84-1.922 0-.637.641-1.918 1.282-3.84l1.277-5.117h10.883l1.918 5.117c.64 1.282.64 2.563.64 3.203 0 1.278-1.921 1.278-3.199 1.278v1.922h-.64zm13.437.64H392.92v-1.922h.64c1.278 0 2.559 0 2.559-1.281 0-.637-.641-1.918-.641-3.199l-1.918-5.117h-10.242l-1.277 4.476c-.641 1.282-1.282 2.563-1.282 3.203 0 1.278 1.918 1.278 3.2 1.278h.64v1.281H373.72v-.641c1.918 0 3.2-1.281 3.84-2.558l7.039-21.121 1.918-5.758c1.282-.641 3.203-1.281 4.481-1.922h1.281c0 .641 0 .641.641 1.281l8.32 23.68c.641 1.918 1.277 3.199 1.918 4.48.641 1.278 1.281 1.918 2.562 1.918h.637v1.922zm11.524-4.48c0 1.918 1.277 2.558 2.558 2.558h5.762c1.918 0 3.84-1.281 4.476-2.558.641-1.281 1.282-2.563 1.282-3.199h1.281l-1.922 7.679h-24.32v-1.922h.64c1.922 0 3.2 0 3.2-3.199v-23.68c0-2.558-1.918-2.558-3.2-2.558h-.64v-1.281h14.082v1.281h-1.281c-1.918 0-3.2 0-3.2 2.558v24.321h1.282zm0 0"/><path d="M431.318 526.654c.641-2.563 1.281-5.121 1.922-7.039h-.641c0 1.277-.64 1.918-1.281 3.199-.641 1.277-2.559 2.558-4.48 2.558h-5.758c-1.281 0-3.199-.64-3.199-2.558v-23.68c0-2.562 1.277-2.562 3.199-2.562h.64v-1.278h-14.082v1.278h.641c1.922 0 3.84 0 3.84 2.562v23.68c0 3.199-1.918 3.199-3.84 3.199h-.641v1.281h12.161c3.839-.64 7.679-.64 11.519-.64m.641.64h-24.321v-1.922h.641c1.922 0 3.199 0 3.199-2.558v-23.68c0-1.922-1.277-2.562-3.199-2.562h-.641v-1.278h14.082v1.278h-1.281c-1.922 0-3.199 0-3.199 2.562v23.68c0 1.918 1.277 1.918 2.559 2.558h5.761c1.918 0 3.199-1.281 4.481-2.558.636-1.281 1.277-1.922 1.277-3.199h1.281c.641 2.558 0 5.117-.64 7.679zm0-28.801c1.281 0 1.281-.64 1.281-1.281 0-.64-.641-1.277-.641-1.277h-.64v2.558zm-1.282 2.559c.641 0 .641 0 .641-.641v-3.839c0-.637 0-.637-.641-.637h2.563c.641 0 1.918.637 1.918 1.277 0 .641-.641 1.281-1.277 1.281l.636 1.282c.641.636.641 1.277 1.282 1.277h-.641c-.641 0-.641-.641-1.918-1.918h-.641v1.277c0 .641 0 0 .641.641h-2.563zm1.922 1.281c1.918 0 3.84-1.922 3.84-3.84 0-1.921-1.922-3.839-3.84-3.839-1.922 0-3.84 1.918-3.84 3.839.641 1.918 1.918 3.84 3.84 3.84m0-8.32c2.559 0 5.121 1.922 5.121 5.121 0 3.199-1.921 4.481-5.121 4.481-3.199 0-5.121-1.922-5.121-4.481 0-2.562 2.563-5.121 5.121-5.121m-108.16-172.801c0-20.48-8.32-39.039-22.398-53.758-13.442-8.32-29.442-13.441-46.082-13.441h-37.121c-44.161 0-80 32.641-80 80 0 19.84 7.679 37.762 19.839 51.84 12.801 8.961 28.161 15.359 44.801 17.922-32.64-7.043-56.961-35.84-56.961-71.043 0-40.321 32.641-72.957 72.321-72.957 40.32 0 72.961 32.636 72.961 72.957 0 39.679-31.36 71.679-71.04 72.32h3.2c55.039.641 100.48-37.117 100.48-83.84zm0 0"/><path d="M218.201 254.013c-44.16 0-80 32.641-80 80 0 19.199 7.039 37.121 19.199 50.559l1.918 1.921c12.801 8.961 27.52 14.719 44.16 17.918-32.64-7.039-56.961-35.839-56.961-71.039 0-40.32 32.641-72.961 72.321-72.961 40.32 0 72.961 32.641 72.961 72.961 0 39.68-31.36 71.68-71.04 72.321h3.2c3.199 0 6.398 0 9.601-.641 42.239-10.238 69.117-53.117 61.438-98.559-3.84-21.121-14.078-39.039-28.797-51.839-3.203-.641-6.402-.641-9.602-.641h-38.398zm0 0"/></g></svg>