<svg xmlns="http://www.w3.org/2000/svg" viewBox="-49 220.451 570 353.098"><path d="M521 543.282c0 16.716-15.085 30.267-33.693 30.267H-15.307C-33.915 573.55-49 559.997-49 543.282V250.717c0-16.715 15.085-30.266 33.693-30.266h502.613c18.609 0 33.693 13.551 33.693 30.266L521 543.282z" fill="#004a98"/><path d="M487.307 573.549c18.608 0 33.693-13.551 33.693-30.267V439.978s-130.751 92.254-370.226 133.571h336.533z" fill="#f58220"/><radialGradient id="a" cx="241.436" cy="-96.391" r="35.139" gradientTransform="translate(6.416 486.083)" gradientUnits="userSpaceOnUse"><stop offset=".006" stop-color="#ffeee0"/><stop offset=".11" stop-color="#fee9d7"/><stop offset=".279" stop-color="#fddbbf"/><stop offset=".493" stop-color="#fbc597"/><stop offset=".744" stop-color="#f8a560"/><stop offset="1" stop-color="#f48120"/></radialGradient><path d="M247.901 354.953c-19.646 0-35.583 15.347-35.583 34.287 0 20.136 15.246 35.19 35.583 35.19 19.829 0 35.486-15.252 35.486-34.794 0-19.427-15.552-34.683-35.486-34.683z" fill="url(#a)"/><g fill="#fff"><path d="M45.892 356.203h-19.13v66.722h19.03c10.097 0 17.399-2.393 23.805-7.698 7.6-6.304 12.108-15.808 12.108-25.63-.001-19.699-14.717-33.394-35.813-33.394zm15.213 50.112c-4.113 3.712-9.408 5.315-17.824 5.315h-3.497v-44.128h3.497c8.416 0 13.508 1.502 17.824 5.4 4.502 4.002 7.186 10.199 7.186 16.6 0 6.412-2.684 12.827-7.186 16.813zm26.607-50.112h13v66.722h-13zm44.829 25.594c-7.815-2.895-10.113-4.805-10.113-8.393 0-4.205 4.093-7.404 9.705-7.404 3.902 0 7.104 1.599 10.516 5.39l6.793-8.889c-5.602-4.913-12.304-7.411-19.614-7.411-11.794 0-20.805 8.207-20.805 19.102 0 9.212 4.199 13.91 16.408 18.324 5.106 1.792 7.701 2.987 9.004 3.802 2.601 1.701 3.907 4.094 3.907 6.895 0 5.409-4.306 9.405-10.117 9.405-6.203 0-11.2-3.098-14.204-8.9l-8.394 8.113c5.99 8.791 13.195 12.706 23.11 12.706 13.506 0 23.006-9.017 23.006-21.918.001-10.606-4.39-15.412-19.202-20.822zm23.303 7.8c0 19.63 15.412 34.833 35.228 34.833 5.602 0 10.404-1.106 16.313-3.898v-15.314c-5.21 5.207-9.813 7.302-15.719 7.302-13.104 0-22.415-9.506-22.415-23.019 0-12.8 9.602-22.908 21.821-22.908 6.193 0 10.904 2.201 16.313 7.503v-15.314c-5.703-2.893-10.414-4.085-16.016-4.085-19.715.001-35.525 15.512-35.525 34.9zm156.99 11.426l-17.811-44.82h-14.208l28.325 68.426h6.998l28.821-68.426h-14.104zm38.039 21.902h36.916v-11.296H363.88v-18.02h22.994V382.31H363.88v-14.808h23.909v-11.299h-36.916zm88.431-47.03c0-12.5-8.592-19.691-23.609-19.691h-19.313v66.722h13.02v-26.815h1.703l18.001 26.815h16.009l-21.024-28.105c9.819-2.008 15.213-8.714 15.213-18.926zm-26.116 11.018h-3.786v-20.218h3.994c8.122 0 12.523 3.412 12.523 9.904 0 6.7-4.4 10.314-12.731 10.314zm35.296-25.741c0-1.169-.782-1.803-2.213-1.803h-1.894v5.877h1.392v-2.286l1.645 2.286h1.744l-1.953-2.429c.822-.218 1.279-.826 1.279-1.645zm-2.454.8h-.261v-1.528h.274c.693 0 1.045.252 1.045.751-.001.516-.367.777-1.058.777z"/><path d="M446.551 357.157a5.118 5.118 0 0 0-5.131 5.134 5.126 5.126 0 0 0 5.131 5.135c2.789 0 5.068-2.311 5.068-5.135 0-2.813-2.279-5.134-5.068-5.134zm-.007 9.349c-2.279 0-4.113-1.877-4.113-4.201 0-2.347 1.822-4.212 4.113-4.212 2.214 0 4.041 1.901 4.041 4.212 0 2.308-1.826 4.201-4.041 4.201z"/></g></svg>