<svg xmlns="http://www.w3.org/2000/svg" viewBox="-49 220.451 570 353.098"><path d="M521 543.282c0 16.716-15.085 30.267-33.693 30.267H-15.307C-33.915 573.55-49 559.997-49 543.282V250.717c0-16.715 15.085-30.266 33.693-30.266h502.613c18.609 0 33.693 13.551 33.693 30.266L521 543.282z" fill="#0c489c"/><path d="M316.308 391.183h-.227V372.37h20.813c.136 0 .227.046.352.046h.397c.137.045.227.045.364.045.125 0 .261.034.397.034.091 0 .171.046.261.046h.091c.137.045.273.045.353.091.136 0 .273.045.397.091.137.046.227.091.363.091.125.046.262.091.398.137.091.034.216.079.352.125.137.045.273.136.398.182.137.045.227.091.364.17.125.046.261.137.398.182a.939.939 0 0 0 .352.227c.136.08.216.171.352.261.137.091.273.182.398.273.136.079.227.17.364.306.125.091.261.216.398.307.136.136.216.273.352.398.136.136.261.273.398.409.136.171.227.307.352.477.136.182.272.363.363.579.125.227.261.443.398.67.136.261.216.579.352.841.182.398.272.841.397 1.284.137.67.227 1.42.227 2.181 0 .75-.091 1.465-.227 2.17-.125.398-.216.841-.397 1.249-.091.307-.216.568-.352.887-.137.216-.273.443-.398.659a3.169 3.169 0 0 1-.363.534c-.125.182-.216.352-.352.488-.137.182-.262.307-.398.443-.137.136-.216.227-.352.352-.137.136-.272.227-.398.364-.137.079-.227.17-.364.261-.125.091-.261.227-.398.306-.136.046-.216.137-.352.227-.137.091-.261.137-.352.227-.137.034-.273.125-.398.17-.136.045-.227.136-.364.182-.125.046-.261.091-.398.171a3.071 3.071 0 0 1-.352.137c-.136.045-.273.091-.398.136l-.363.091c-.125.046-.261.08-.397.08-.08.045-.216.045-.353.091h-.091c-.091 0-.17.045-.261.045-.136 0-.272.045-.397.045-.136 0-.227 0-.364.045h-.397c-.125 0-.216.045-.352.045h-20.586v-.045zm-.227 31.912h22.983c.137-.045.272-.045.409-.045.125 0 .216 0 .352-.046h.398c.136-.045.227-.045.352-.045.136-.046.273-.046.363-.091.079 0 .17 0 .216-.045l.182-.045c.125 0 .216-.045.352-.091.136-.034.261-.034.397-.079.137-.046.227-.091.353-.137.136-.045.273-.091.397-.136.091-.091.227-.136.364-.171a.999.999 0 0 1 .397-.182c.137-.091.216-.136.352-.227a.829.829 0 0 0 .352-.216c.136-.045.273-.136.409-.227.125-.079.216-.171.352-.261.125-.091.261-.182.398-.272.136-.125.216-.216.352-.306.137-.137.272-.261.398-.398.136-.136.227-.261.364-.398.125-.136.261-.273.398-.443.125-.182.216-.363.352-.534.136-.182.261-.398.352-.58.182-.216.273-.443.398-.67.136-.307.272-.614.363-.932.17-.398.261-.795.398-1.238.171-.75.261-1.557.261-2.397 0-.84-.091-1.636-.261-2.397-.137-.398-.227-.841-.398-1.238-.091-.318-.227-.58-.363-.887-.125-.227-.216-.488-.398-.716a4.675 4.675 0 0 0-.352-.579c-.137-.171-.227-.352-.352-.523-.137-.136-.227-.273-.398-.454-.136-.125-.227-.261-.364-.398-.125-.125-.261-.216-.398-.352-.136-.136-.216-.216-.352-.307-.137-.091-.273-.227-.398-.318-.136-.079-.227-.17-.352-.261a1.819 1.819 0 0 0-.409-.227.975.975 0 0 0-.352-.216 1.315 1.315 0 0 0-.352-.182c-.182-.045-.273-.125-.397-.171-.136-.091-.273-.136-.364-.182-.125-.045-.261-.136-.397-.182-.125-.046-.216-.046-.353-.125-.136 0-.261-.046-.397-.091-.137-.045-.227-.045-.352-.091l-.182-.045c-.046 0-.137-.045-.216-.045-.091 0-.227-.045-.363-.045-.125 0-.216-.045-.352-.045-.182 0-.261-.034-.398-.034h-.352c-.137-.046-.272-.046-.409-.046-.125 0-.216 0-.352-.045h-22.631v20.414zm-31.15-141.03h-57.735c-.137 0-.273.034-.398.034h-.363c-.125 0-.261.045-.397.045h-.353l-.397.045c-.091.045-.227.045-.352.045-.136 0-.273.045-.364.045l-.397.045-.353.046c-.136 0-.273.045-.397.045-.091 0-.227.046-.363.046-.125 0-.216.045-.353.045l-.397.08-.352.045c-.137.045-.273.045-.398.091-.091.045-.227.045-.363.091-.125 0-.261.046-.398.046l-.352.091c-.137.045-.227.045-.352.079-.137.045-.273.045-.398.091-.137.045-.227.045-.364.091-.125.045-.261.045-.352.091l-.398.136c-.137 0-.227.046-.352.08-.137.045-.273.045-.398.091-.136.045-.227.091-.364.136-.125.045-.261.091-.352.091l-.398.125c-.136.046-.273.091-.352.137a12.17 12.17 0 0 0-.398.137 3.177 3.177 0 0 0-.364.136c-.125.046-.261.08-.398.125-.136.045-.261.136-.352.182-.136.045-.273.091-.397.136l-.364.125a1.379 1.379 0 0 1-.397.182c-.091.046-.216.091-.352.182-.137.046-.261.08-.353.125-.136.045-.273.136-.397.182-.137.045-.273.136-.363.182-.125.045-.262.125-.398.17l-.352.227-.398.17c-.137.045-.227.136-.352.182-.137.091-.273.136-.409.182a.989.989 0 0 1-.352.216c-.136.091-.261.136-.352.227a1.518 1.518 0 0 0-.398.216l-.364.227c-.125.046-.261.137-.398.216-.125.045-.216.136-.352.227-.136.091-.261.17-.398.216-.091.091-.227.182-.352.272-.136.091-.273.171-.364.261-.125.045-.261.136-.398.227-.125.091-.261.171-.352.261-.136.091-.261.227-.397.273-.137.08-.227.216-.353.307a8.172 8.172 0 0 1-.408.261c-.125.091-.216.182-.352.318-.125.091-.262.17-.398.306-.091.091-.216.182-.352.307-.137.091-.273.182-.352.318-.136.091-.273.17-.409.306-.125.137-.261.227-.352.352-.137.091-.261.227-.398.318a1.727 1.727 0 0 1-.352.352l-.398.398c-.091.091-.227.227-.364.352-.125.137-.261.272-.352.409-.137.125-.261.261-.398.352-.136.171-.273.261-.352.398-.137.182-.273.306-.398.443-.091.136-.227.261-.364.398-.125.182-.216.318-.398.443a2.543 2.543 0 0 1-.352.443l-.397.488c-.091.182-.227.318-.364.488-.125.182-.216.318-.352.488-.136.182-.261.352-.398.534-.136.182-.216.352-.352.534-.136.182-.273.352-.397.534-.091.216-.227.397-.364.579-.125.216-.261.397-.352.613-.136.182-.261.397-.397.625-.137.227-.227.443-.352.671-.136.216-.273.443-.398.659a5.418 5.418 0 0 1-.363.716c-.125.261-.262.489-.398.75a5.534 5.534 0 0 1-.352.795c-.137.318-.261.579-.398.898-.091.261-.227.568-.352.886-.137.352-.272.659-.363 1.022-.125.352-.261.704-.398 1.057-.136.398-.216.806-.352 1.204-.137.443-.273.886-.398 1.374-.136.534-.227 1.068-.364 1.591a39.132 39.132 0 0 0-.795 7.862v50.588c.273-.227.534-.443.795-.67.137-.079.273-.17.364-.261.125-.091.261-.227.398-.307.136-.091.216-.182.352-.273.137-.091.273-.216.398-.307.091-.091.227-.136.363-.272.125-.046.261-.125.352-.216l.398-.272c.136-.08.216-.171.352-.261l.398-.227c.136-.079.227-.17.363-.261.125-.045.261-.136.398-.227.125-.079.216-.125.352-.216.136-.045.261-.136.397-.227.137-.034.227-.125.352-.216.136-.045.273-.136.364-.182l.397-.216.352-.182c.137-.091.262-.136.398-.216.137-.046.227-.137.352-.182l.364-.182.397-.216.352-.182c.137-.045.273-.136.398-.17l.364-.182.398-.182.352-.125.398-.182.352-.136.364-.171.398-.136.352-.182.398-.125c.091-.045.227-.091.352-.136l.409-.137c.08-.091.216-.136.352-.182.136-.034.261-.079.352-.125l.398-.091.352-.182c.136 0 .273-.045.408-.08l.353-.136.397-.137.352-.136.398-.08.364-.136.352-.091.398-.136.352-.091.398-.125.364-.091.398-.091.443-.136.352-.079.398-.091.364-.091.398-.091.704-.17.398-.046.363-.091.398-.091.352-.091.397-.091.353-.046.408-.079.352-.091.353-.045.397-.091.364-.045.398-.045.352-.079.398-.046.352-.091.409-.045.704-.091.398-.091.352-.045.409-.046.704-.079.398-.046.363-.045.398-.046.352-.045.397-.045.716-.091h.398l.352-.045.397-.045.353-.034h.363l.397-.045.353-.046h.397l.352-.045h.364l.397-.046h.352l.398-.045h.352l.409-.045h.704l.398-.045h.761l.352-.045h1.863l.398-.045h6.35l.352.045h2.261l.397.045h1.113l.353.045h.761l.397.045h.352l.398.045h.716l.398.046.352.045h.398l.716.091h.398l.352.034.398.045.363.045h.398l.352.045.398.045.716.091.398.046h.352l.397.045.364.046.398.045.704.08.397.045.363.045.398.045.352.045.352.091.398.046.364.045.398.046.352.034.398.091.352.045.409.045.352.045.352.091.398.046.363.045.398.034.352.091.397.046.353.091.397.046.363.091.353.045.397.08.352.045.409.091.352.045.352.091.398.045.352.091.409.045.704.17.398.045.364.091.398.091.352.046.398.079.352.091.409.045.352.091.397.091.353.091.397.08.364.045.352.091.397.091.352.091.398.091.364.08.398.091.352.091.398.091.352.091v16.325l-.352-.182-.398-.17-.352-.182-.398-.17-.364-.182-.398-.227-.352-.171-.397-.182-.716-.352-.397-.137-.353-.171-.397-.182-.352-.182-.409-.125-.352-.182-.398-.182-.352-.125-.398-.182-.364-.136-.398-.17-.704-.273-.409-.17-.352-.137-.398-.136-.704-.261-.409-.136-.352-.136-.397-.125-.716-.273-.397-.091-.353-.125-.397-.137-.352-.091-.398-.136-.363-.079-.398-.137-.352-.091-.352-.137-.409-.091-.352-.079-.398-.091-.352-.091-.398-.136-.364-.079-.398-.091-.704-.182-.398-.045-.363-.091-.397-.08-.353-.045-.352-.091-.398-.091-.364-.045-.397-.091-.352-.045-.398-.08-.363-.045-.352-.091-.398-.046-.352-.045-.398-.045-.363-.045-.398-.045-.352-.08-.398-.045-.352-.046h-.364l-.398-.045-.534.091-.398-.046-.704-.091h-.409l-.216-.045h-.534l-.352-.045h-.397l-.364-.045h-.75l-.353-.045h-3.022c-.136 0-.216 0-.352.045h-.398l-.352.045h-.363l-.398.045h-.352c-.137 0-.273.045-.398.045-.136 0-.227 0-.364.046h-.352l-.398.045-.352.046-.398.045-.363.08-.352.045c-.136 0-.261.045-.398.045-.136.045-.261.045-.352.091-.136 0-.273.046-.398.046-.136.045-.273.045-.364.091-.125 0-.261.045-.397.079-.137 0-.216.045-.353.045-.136.045-.273.091-.397.091l-.363.091c-.125.045-.262.091-.353.091a1.202 1.202 0 0 1-.397.091c-.137.045-.216.079-.352.125l-.398.091c-.091.045-.227.091-.363.137-.125.045-.261.045-.398.091a1.823 1.823 0 0 1-.352.125 2.845 2.845 0 0 0-.352.136c-.137.045-.273.091-.398.136-.137.045-.227.091-.364.136-.125.034-.261.125-.398.171a2.897 2.897 0 0 1-.352.137 1.532 1.532 0 0 0-.398.182c-.091.034-.227.079-.352.125-.136.045-.273.136-.364.182-.125.045-.261.137-.398.182a1.668 1.668 0 0 1-.352.17c-.136.091-.272.136-.398.227-.136.046-.273.08-.352.171a1.819 1.819 0 0 0-.409.227c-.08.045-.216.136-.353.171-.136.091-.261.182-.352.227a21.89 21.89 0 0 1-.397.261c-.136.091-.273.136-.364.227a4.685 4.685 0 0 1-.397.261 2.395 2.395 0 0 1-.352.273l-.398.261c-.091.091-.227.182-.352.273-.137.125-.273.216-.363.306a1.657 1.657 0 0 1-.398.307c-.137.137-.216.227-.352.363-.137.08-.261.216-.398.307-.091.136-.227.227-.352.352a9.469 9.469 0 0 1-.363.352c-.125.182-.261.273-.398.454-.136.125-.216.261-.352.398a2.518 2.518 0 0 0-.398.443c-.091.125-.227.261-.364.443-.125.136-.216.306-.352.488-.125.171-.261.307-.398.488-.136.171-.216.352-.352.534-.137.216-.273.398-.398.614-.136.182-.227.398-.364.625-.125.227-.261.443-.398.671-.125.216-.216.488-.352.704-.136.272-.261.534-.397.795-.137.318-.227.625-.353.898-.136.306-.273.659-.408 1.011-.08.364-.216.761-.352 1.113-.125.443-.262.886-.353 1.375-.182.58-.261 1.159-.397 1.772-.137.897-.273 1.784-.352 2.715a27.427 27.427 0 0 0-.182 3.374c0 1.148.046 2.261.182 3.329.08.932.171 1.863.352 2.749.136.568.216 1.148.397 1.727.091.488.227.932.353 1.375.136.398.273.761.352 1.159.136.307.273.659.408.977.125.306.216.568.353.886.136.261.261.534.397.796.091.227.227.488.352.749.137.182.273.455.398.625.091.227.227.443.364.671.125.17.261.352.398.579a3.5 3.5 0 0 0 .352.523c.137.182.273.318.398.488.091.182.227.364.352.488.137.182.273.318.364.488.125.136.261.273.398.397.136.182.216.318.352.455.137.125.273.261.398.397.091.091.227.216.363.353.125.136.261.216.352.352.136.136.261.227.398.352.136.091.216.182.352.318.136.136.273.17.398.306.091.091.227.182.363.307.125.091.261.182.352.272.136.091.261.182.398.261.136.091.261.182.352.273.136.091.273.171.397.261.091.045.227.136.364.227.125.046.261.125.397.216.091.045.216.182.352.227a.994.994 0 0 1 .353.216c.136.045.273.136.409.182.079.091.216.136.352.227.125.034.262.125.398.17.091.045.216.136.352.182.137.091.273.125.398.17.091.045.227.136.364.182.125.045.261.136.352.182.137.045.261.079.398.17.136.045.227.091.352.136.137.045.273.091.398.136.136.046.227.091.364.171.125.045.261.091.398.136.091 0 .216.091.352.136a.81.81 0 0 1 .352.091c.137.08.273.08.398.125.091.045.227.091.363.136.125 0 .261.045.398.091.091.045.216.091.352.136.136 0 .273.034.397.08.091 0 .227.045.353.091l.363.091c.125.046.261.046.397.091a.934.934 0 0 0 .353.046c.136.045.273.091.397.091.091.034.227.034.364.079.125 0 .261.045.398.091.091 0 .216.045.352.045.137 0 .216.045.398.045.091.045.227.045.352.045l.363.091.398.046.352.034.398.046.352.045c.137 0 .227.045.364.045h.398l.352.046.398.045h.716c.125 0 .261 0 .398.046h3.726l.397-.046h.716l.397-.045h.352l.398-.046h.352l.409-.045.704-.091h.398l.716-.079.398-.045.352-.045.398-.045.716-.091.796-.17.716-.091.398-.046.352-.091.397-.045.364-.091.398-.045.352-.08.398-.045.352-.137.364-.045.398-.091.352-.091.398-.08.716-.182.796-.182.704-.171.409-.136.352-.091.398-.091.352-.125.352-.091.409-.137.397-.091.352-.091.353-.125.397-.137.364-.136.397-.079.704-.273.409-.136.352-.125.398-.136.352-.137.398-.137.364-.17.352-.136.398-.136.352-.125.398-.182.363-.137.352-.171.398-.136.352-.182.398-.171.363-.136.398-.182.352-.17.397-.182.364-.171.398-.182.352-.182.398-.171.716-.363.398-.171.352-.182.398-.17.716-.364.398-.216v16.371l-.398.091-.716.182-.398.08-.352.091-.398.091-.716.182-.398.079-.352.091-.534.273-.716.17-.398.091-.352.091-.398.045-.364.091-.398.091-.352.08-.398.045-.352.091-.364.046-.398.091-.352.045-.397.08-.352.091-.364.045-.398.091-.352.045-.397.091-.352.046-.364.079-.397.045-.353.091-.397.045-.352.091-.409.046-.352.045-.398.046-.352.079-.363.045-.398.045-.352.091-.398.045-.352.046-.409.091-.704.079-.398.045-.352.045-.409.091h-.352l-.397.091-.353.045-.397.045-.716.091-.397.034-.352.046-.398.045h-.363l-.352.045-.795.091-.364.046h-.352l-.398.045-.352.046-.398.045h-.364l-.352.046h-.398l-.352.034h-.398l-.363.045h-.352l-.398.045h-.352l-.398.045h-.932l-.182.045h-.761l-.352.045h-1.148l-.364.045h-1.148l-.352.045h-6.93l-.398-.045h-1.113l-.352-.045h-.75l-.398-.045h-.364l-.397-.045h-.353l-.352.045h-.364l-.398-.045h-.352l-.397-.045h-.353l-.363-.045h-.397l-.353-.045h-.397l-.352-.034-.409-.046h-.352l-.353-.045-.397-.046-.363-.045-.398-.046-.704-.091-.398-.045-.363-.045-.398-.046-.352-.034-.398-.045-.352-.046-.364-.091h-.398l-.352-.091-.352-.045-.398-.045-.364-.091-.398-.034-.352-.045-.398-.091-.352-.046-.409-.091-.353-.045-.352-.091-.397-.034-.364-.091-.397-.045-.352-.091-.398-.091-.352-.091-.409-.08-.704-.182-.398-.091-.352-.091-.409-.091-.352-.08-.398-.136-.352-.091-.398-.091-.364-.125-.352-.091-.398-.091-.352-.136-.398-.125-.364-.091-.397-.091a2.897 2.897 0 0 0-.352-.137 2.197 2.197 0 0 1-.353-.137l-.273-.17-.397-.136c-.137-.045-.216-.091-.353-.136a4.098 4.098 0 0 1-.397-.125l-.363-.137c-.125-.045-.262-.136-.398-.136l-.352-.17-.398-.137-.352-.182-.363-.125-.398-.182-.352-.182-.398-.125-.716-.364-.398-.171a1.315 1.315 0 0 0-.352-.182l-.398-.216-.364-.182-.398-.182a1.449 1.449 0 0 0-.352-.171c-.136-.091-.261-.182-.397-.227l-.353-.17-.363-.227-.397-.136c-.125-.091-.216-.125-.353-.216-.136-.045-.261-.136-.352-.182l-.398-.261c-.136-.046-.227-.137-.364-.227-.125-.091-.261-.137-.397-.216l-.346-.208a21.89 21.89 0 0 0-.397-.261l-.352-.227c-.136-.091-.273-.216-.409-.261-.125-.091-.216-.182-.352-.273-.137-.091-.261-.17-.352-.261-.137-.091-.273-.227-.398-.318-.137-.08-.227-.171-.363-.261-.125-.091-.261-.182-.398-.307-.261-.227-.534-.443-.795-.67v89.249h58.405c.125 0 .261-.046.398-.046h.352l.398-.045h.352c.136 0 .227 0 .363-.045h.398c.136-.045.216-.045.352-.045.136-.045.261-.045.398-.045.136-.045.227-.045.352-.045.136-.045.273-.045.408-.045l.353-.045c.136-.045.261-.045.397-.079.137 0 .227-.046.352-.046.137-.045.227-.045.398-.091l.364-.045.352-.091c.137 0 .262-.046.398-.091.137 0 .227-.045.352-.045l.409-.08.352-.091c.125-.045.261-.091.398-.091a2.91 2.91 0 0 1 .352-.136c.136 0 .227-.045.398-.091.091-.045.227-.045.363-.08l.352-.136.398-.091c.136-.045.227-.091.352-.136.136-.045.227-.045.397-.08.136-.045.227-.091.364-.136l.352-.137.398-.136c.136-.045.227-.08.352-.125.136-.046.273-.137.397-.182.137-.045.227-.091.364-.136.125-.045.261-.091.397-.125l.705-.364.397-.125c.137-.091.273-.137.363-.182.125-.091.262-.136.398-.182.136-.079.216-.125.352-.216.137-.045.273-.091.398-.182.137-.045.227-.137.364-.17.125-.091.261-.137.352-.227l.398-.182.352-.171.398-.227c.136-.091.227-.125.364-.17.125-.091.261-.182.352-.227.182-.091.261-.182.398-.216.136-.091.227-.182.352-.227.137-.091.273-.182.398-.261.136-.091.227-.182.363-.227.125-.091.261-.182.398-.216.136-.091.216-.182.352-.273.136-.091.273-.182.397-.261.137-.091.227-.182.364-.273.125-.091.261-.17.352-.261.125-.091.261-.182.397-.272.137-.125.262-.216.398-.307.091-.091.227-.182.352-.261.137-.091.227-.227.364-.318.125-.125.261-.171.398-.306.125-.137.216-.227.352-.307.137-.136.261-.227.398-.363.137-.091.227-.17.352-.307.137-.136.273-.227.364-.352.125-.136.261-.227.398-.363l.398-.352c.091-.136.216-.261.352-.398l.352-.352c.137-.136.272-.272.409-.398.125-.136.216-.273.352-.409.136-.125.261-.261.398-.397.091-.17.227-.307.352-.443.136-.125.272-.307.352-.443.136-.171.273-.306.409-.489.125-.125.216-.307.352-.443.136-.171.261-.306.397-.488.091-.17.227-.352.353-.534.136-.125.272-.307.363-.488.125-.17.261-.352.398-.534.125-.216.216-.397.397-.568.091-.182.216-.398.352-.58.137-.182.227-.398.352-.625.136-.17.273-.398.409-.614.125-.227.216-.454.352-.67.137-.227.261-.443.398-.671.091-.216.216-.488.352-.75.137-.227.273-.488.352-.75.137-.272.273-.534.409-.806.125-.307.216-.579.352-.886.137-.306.261-.579.398-.932.136-.306.227-.671.352-1.022.137-.352.273-.75.398-1.102.136-.409.227-.806.363-1.25.125-.488.261-.932.352-1.42.182-.579.261-1.147.398-1.727.136-.761.261-1.557.352-2.306.227-1.648.318-3.284.318-4.976V282.065h-1.023zm-106.949 0h-57.735c-.137 0-.273.034-.363.034h-.398c-.125 0-.216 0-.352.045h-.398l-.352.045-.409.045c-.079 0-.216.045-.352.045l-.398.045-.352.046c-.136 0-.273 0-.352.045-.136 0-.273.046-.409.046-.125 0-.216.045-.352.045l-.397.08c-.091 0-.227.045-.353.045-.136.045-.273.045-.397.091-.091.045-.227.045-.363.091l-.398.046-.352.091a1.251 1.251 0 0 1-.398.079.854.854 0 0 1-.352.091c-.137.045-.273.045-.363.091a1.202 1.202 0 0 1-.398.091l-.352.136c-.137 0-.272.046-.398.08-.136.045-.227.091-.352.091l-.409.136c-.079.045-.216.091-.352.137l-.352.125-.398.136c-.136.045-.273.045-.364.136-.125 0-.261.046-.398.091-.125.046-.216.125-.352.171l-.306.136-.364.136-.397.171c-.125.045-.216.091-.352.136-.137.046-.261.137-.398.182l-.352.171a1.58 1.58 0 0 0-.409.182c-.079.045-.216.091-.352.182-.125.034-.216.08-.352.171l-.398.182c-.137.045-.227.136-.352.216a1.58 1.58 0 0 0-.409.182c-.079.046-.216.137-.352.182-.136.08-.261.171-.352.216-.137.091-.272.137-.398.227-.136.045-.227.125-.352.17l-.409.227c-.125.091-.216.171-.352.216-.136.091-.261.182-.398.273a2.742 2.742 0 0 0-.352.216 3.985 3.985 0 0 1-.364.227c-.125.091-.261.171-.398.261-.125.091-.216.182-.352.273-.136.091-.261.171-.397.262l-.353.272c-.136.079-.273.216-.408.306-.125.091-.216.182-.352.261a2.42 2.42 0 0 0-.398.318c-.137.091-.216.171-.352.261-.137.137-.272.227-.352.352-.136.091-.273.182-.409.318a2.72 2.72 0 0 0-.352.307c-.137.091-.261.227-.398.307a9.17 9.17 0 0 0-.352.364c-.137.125-.272.216-.398.352l-.364.352a6.496 6.496 0 0 1-.398.398c-.136.136-.216.227-.352.364a2.296 2.296 0 0 0-.352.397 6.226 6.226 0 0 0-.398.398c-.136.137-.273.261-.364.398-.125.182-.261.307-.398.443a1.924 1.924 0 0 0-.352.443c-.136.137-.273.318-.397.443a3.94 3.94 0 0 0-.364.443 2.925 2.925 0 0 1-.397.488c-.08.182-.216.364-.352.534-.137.136-.262.306-.398.488-.091.182-.227.352-.352.534a4.097 4.097 0 0 0-.364.579c-.125.171-.261.352-.397.579a5.249 5.249 0 0 0-.352.568c-.137.227-.261.397-.398.625-.137.227-.273.443-.352.671-.137.216-.273.443-.409.659a4.191 4.191 0 0 1-.352.716c-.137.261-.261.489-.398.75-.091.272-.227.534-.352.795-.136.318-.273.579-.352.852-.137.307-.273.614-.409.932-.125.307-.216.659-.352.977l-.398 1.102c-.136.398-.227.806-.352 1.204-.136.443-.273.886-.398 1.374-.136.534-.273 1.068-.364 1.591a38.607 38.607 0 0 0-.795 7.862v95.451c.261.137.534.272.795.398l.364.182.398.182.352.17.398.182.352.171.409.182.704.352.398.136.352.182.409.171.352.182.398.137.352.17.397.136.716.352.398.136.352.137.397.17.364.136.397.136.352.125.398.182.364.136.398.137.704.261.398.136.364.125.398.136.352.091.398.136.352.125.409.136.352.091.352.137.398.079.352.136.408.091.353.136.397.091.352.08.398.091.364.137.352.091.398.079.352.091.409.091.352.091.398.091.704.171.409.091.352.046.398.091.704.182.409.034.352.045.398.091.352.045.397.091.364.045.397.045.705.079.397.091.364.045.397.046.352.045h.398l.716.091h.398l.352.046.398.045.364.046h.75l.398.034h1.511l.352.045h1.114l.397-.045h.75c.091 0 .227 0 .364-.034h.398c.091 0 .216 0 .352-.046.137 0 .273 0 .352-.045l.409-.046c.125 0 .216 0 .352-.045.125 0 .261 0 .398-.046l.352-.045c.136 0 .273-.046.352-.046.137-.045.273-.091.409-.091.125-.046.261-.046.352-.079.136 0 .261-.046.398-.046.136-.045.227-.091.352-.091.136-.045.273-.091.397-.136.091-.045.227-.045.364-.091.125-.045.261-.079.352-.079.136-.046.261-.091.398-.137a2.33 2.33 0 0 0 .352-.136c.136-.046.273-.091.397-.137.137-.046.227-.08.364-.125.125-.046.261-.091.397-.137l.352-.182c.137-.045.273-.091.398-.17.091-.046.227-.091.364-.182.125-.045.216-.091.352-.182.137-.034.262-.125.398-.17.136-.091.216-.137.352-.227.137-.045.273-.125.398-.17.091-.091.227-.137.364-.227.125-.091.261-.182.398-.216.091-.091.216-.182.352-.273.136-.091.227-.17.352-.261.137-.091.273-.182.398-.273.136-.091.227-.171.364-.306.125-.091.261-.182.398-.307.136-.091.216-.227.352-.318.136-.125.261-.216.398-.352.091-.136.227-.261.352-.398.136-.136.273-.272.408-.397a1.87 1.87 0 0 1 .353-.398c.136-.182.261-.318.397-.488.091-.182.227-.318.352-.534.137-.136.273-.318.364-.534.125-.182.261-.352.398-.579.125-.182.216-.398.352-.625.137-.261.262-.488.398-.75.091-.227.227-.534.352-.795.137-.318.273-.625.364-.932.125-.409.261-.761.398-1.159.125-.488.261-.977.352-1.511a21.42 21.42 0 0 0 .398-2.488c.046-.659.091-1.375.091-2.079v-44.863h33.241v44.863c0 1.283-.091 2.567-.182 3.862a26.77 26.77 0 0 1-.398 2.658c-.091.579-.227 1.159-.352 1.727-.136.488-.273.931-.398 1.386a8.365 8.365 0 0 1-.364 1.147c-.125.352-.216.67-.352 1.022-.136.261-.261.579-.397.886a4.936 4.936 0 0 0-.353.795c-.136.273-.273.488-.397.761a4.91 4.91 0 0 0-.364.659 5.47 5.47 0 0 1-.397.625c-.137.227-.216.443-.352.625a9.133 9.133 0 0 0-.398.534 2.448 2.448 0 0 1-.363.568c-.125.182-.216.318-.352.488-.137.182-.261.318-.398.488-.091.136-.216.272-.352.443-.137.137-.273.272-.398.443a2.966 2.966 0 0 1-.364.409c-.125.125-.216.261-.398.398-.091.125-.216.216-.352.352-.137.136-.227.261-.352.398-.137.091-.273.227-.398.318-.136.125-.227.216-.364.352a2.465 2.465 0 0 1-.398.307 1.013 1.013 0 0 1-.352.306c-.136.091-.227.227-.397.318-.091.091-.227.171-.364.261-.125.136-.216.182-.352.273a1.053 1.053 0 0 1-.398.262c-.136.091-.216.227-.352.272-.136.079-.273.17-.397.216-.136.136-.227.227-.364.273-.125.08-.261.171-.397.216a.939.939 0 0 1-.352.227c-.137.079-.227.17-.353.216a2.052 2.052 0 0 1-.397.227c-.137.079-.227.125-.363.216-.125.045-.262.136-.398.182a.918.918 0 0 1-.352.17c-.137.091-.261.136-.398.227-.091.046-.227.137-.352.182-.137.034-.273.08-.363.171-.125.045-.261.136-.398.182l-.352.17-.398.182a1.148 1.148 0 0 0-.352.182 2.063 2.063 0 0 0-.409.17l-.352.136-.398.182a12.63 12.63 0 0 0-.352.125 2.987 2.987 0 0 0-.364.137c-.125.091-.261.136-.398.182l-.352.125c-.136.045-.261.091-.397.136-.137.045-.227.091-.353.136l-.408.137-.352.125c-.137.045-.262.091-.398.091l-.352.136-.398.091c-.091.046-.227.08-.364.125l-.352.136c-.137.045-.261.045-.398.091l-.352.091-.398.125c-.136 0-.227.045-.364.091-.125.045-.261.045-.398.091l-.352.091c-.136.046-.261.091-.352.091a1.323 1.323 0 0 1-.398.091l-.364.08c-.125.045-.261.045-.398.091l-.352.091-.397.046a.863.863 0 0 1-.364.091l-.352.079-.397.091-.353.045c-.136.045-.273.045-.397.091-.091 0-.227.045-.364.045l-.397.045a.81.81 0 0 1-.352.091l-.352.045-.398.08-.363-.216c-.125.045-.261.045-.398.091l-.352.045-.398.034-.352.046-.409.045-.704.091-.398.045-.364.046-.398.045-.704.091-.398.046h-.363l-.398.034-.352.045h-.397l-.352.045h-.409l-.352.045h-.398l-.307.045-.364.045h-.398l-.352.045h-.75l-.408.045h-1.102l-.352.045h-1.113l-.398.046h-5.192l-.398-.046h-1.875l-.352-.045h-1.511l-.352-.045h-.397l-.704-.091h-.364l-.398-.045h-.75l-.364-.045h-.397l-.352-.045-.398-.045h-.352l-.364-.034h-.397l-.352-.046h-.398l-.352-.045-.409-.046-.352-.045h-.352l-.352-.091h-.364l-.397-.046-.352-.045-.398-.045h-.352l-.409-.08h-.352l-.352-.045-.398-.046-.352-.045-.409-.045-.704-.091-.398-.045-.352-.045-.409-.045-.352-.045-.398-.034-.352-.045-.364-.091-.398-.046-.352-.045-.397-.045-.353-.045-.408-.045-.352-.08-.398-.045-.704-.091-.409-.091-.352-.045-.398-.045-.352-.091-.398-.045-.364-.034-.398-.091-.352-.045-.352-.091-.398-.045-.364-.091-.398-.045-.352-.079-.397-.091-.364-.046-.397-.091-.352-.045-.398-.091-.716-.171-.397-.045-.352-.091-.398-.091-.352-.091-.409-.045-.352-.08-.398-.091-.704-.182-.409-.091-.352-.079-.398-.091-.352-.091-.398-.091-.364-.091c-.534-.17-.795-.216-.795-.216v81.478h57.552c.136 0 .273 0 .364-.045h.75l.397-.045h.352c.137 0 .273 0 .364-.045h.397l.352-.045c.137 0 .273 0 .398-.045.091 0 .227-.045.364-.045.125 0 .216 0 .398-.045.091 0 .216-.045.352-.045l.352-.034c.137 0 .273-.046.398-.046.137-.045.227-.045.364-.091.125 0 .261-.045.398-.045l.352-.091c.136 0 .261-.046.398-.046a.854.854 0 0 1 .352-.091c.136 0 .227-.046.364-.08l.398-.091.352-.091c.136 0 .261-.045.398-.091.091-.045.227-.045.352-.091.136-.045.273-.091.408-.091.08-.034.216-.079.353-.125l.397-.091.352-.136c.137 0 .273-.045.398-.091.091-.034.227-.079.364-.125.125-.045.216-.091.352-.136l.398-.136.352-.125.409-.136c.125-.046.216-.091.352-.137.125-.045.261-.091.398-.136.136-.079.216-.125.352-.17.137-.046.273-.091.398-.182l.363-.136.352-.171c.136-.045.261-.136.398-.182.136-.045.227-.136.352-.17.136-.091.273-.137.398-.182.136-.046.227-.137.363-.182.125-.091.261-.125.397-.216.125-.045.216-.136.353-.182l.352-.17c.136-.091.273-.137.397-.227.136-.091.227-.136.364-.182.125-.08.261-.171.397-.216.137-.091.216-.136.352-.227a1.49 1.49 0 0 0 .398-.216c.137-.045.227-.136.352-.227.137-.091.273-.17.364-.216.125-.091.261-.182.397-.272a.91.91 0 0 0 .352-.216c.137-.091.273-.182.398-.272.137-.091.227-.125.364-.216.125-.091.261-.182.398-.273.125-.08.216-.216.352-.261.136-.091.261-.227.352-.306.137-.091.273-.182.398-.272.136-.091.273-.182.364-.307.125-.091.261-.182.398-.318.136-.08.216-.171.352-.261.136-.136.261-.227.398-.352.136-.091.227-.182.352-.318.136-.125.273-.216.363-.352.125-.091.261-.216.398-.352.136-.091.216-.227.352-.307.136-.182.272-.272.397-.409.091-.125.227-.216.364-.352.125-.136.261-.261.397-.398.08-.136.216-.261.353-.352.136-.182.261-.273.397-.398.091-.182.227-.318.352-.443.137-.137.273-.273.364-.455.125-.125.261-.261.398-.443.125-.125.216-.261.352-.443.137-.171.261-.307.398-.488.091-.171.227-.307.352-.488.137-.17.273-.307.363-.488.125-.171.262-.352.398-.522.125-.182.261-.364.352-.534a6.45 6.45 0 0 1 .398-.579c.091-.182.227-.398.352-.58.137-.182.272-.398.409-.579.079-.216.216-.443.352-.613.136-.227.261-.443.352-.716.137-.171.273-.443.398-.659a4.12 4.12 0 0 0 .352-.716c.137-.261.273-.534.409-.795.08-.227.216-.534.352-.806.136-.261.261-.568.352-.841.137-.352.273-.614.398-.977.136-.306.273-.659.363-.977.125-.398.261-.75.398-1.148.125-.397.216-.806.352-1.249.136-.443.261-.932.397-1.42.137-.568.227-1.148.353-1.727.136-.75.273-1.556.409-2.352.17-1.602.307-3.238.307-4.93V282.065h-.89zm214.033 0H334.19c-.137 0-.273 0-.398.034h-.364c-.125 0-.261 0-.398.045h-.352l-.398.045c-.136 0-.227 0-.352.045-.136 0-.273 0-.409.045h-.352a1.198 1.198 0 0 1-.397.045.96.96 0 0 1-.352.046c-.136.045-.273.045-.398.091-.091 0-.227 0-.363.045l-.398.034c-.091.045-.216.045-.352.091-.137 0-.273.045-.352.045-.136.045-.273.045-.409.091l-.352.045-.398.091a.797.797 0 0 1-.352.091c-.137.034-.272.034-.352.08-.137.045-.273.091-.409.091l-.352.091c-.137.046-.261.091-.398.137-.136.045-.261.045-.352.091a3.858 3.858 0 0 0-.398.125c-.136 0-.227.045-.363.091-.125.045-.261.091-.398.136l-.352.091c-.136.034-.261.08-.397.125-.137.045-.227.091-.352.136l-.409.137c-.125.045-.216.091-.352.125l-.353.182-.397.136c-.137.045-.272.091-.398.137-.091.034-.227.125-.364.171-.125.045-.261.091-.352.136a1.202 1.202 0 0 1-.398.171c-.137.045-.227.136-.352.182-.137.045-.273.136-.398.182l-.364.171c-.125.091-.216.136-.352.227a1.566 1.566 0 0 0-.398.182c-.136.034-.227.125-.397.171-.091.091-.227.137-.364.227-.125.045-.216.125-.352.17-.136.091-.261.136-.398.227-.136.091-.216.136-.352.216-.136.045-.227.136-.397.227-.136.045-.227.136-.364.216l-.352.227c-.136.091-.261.182-.397.261l-.398.227-.352.261-.409.272-.352.261c-.137.091-.216.182-.352.273-.137.08-.261.171-.398.261l-.352.272-.409.307a1.939 1.939 0 0 1-.352.307c-.136.091-.216.182-.352.318-.137.08-.272.171-.398.307-.136.091-.227.216-.398.307-.091.136-.227.227-.364.364-.125.079-.216.216-.352.306a2.74 2.74 0 0 1-.398.352c-.136.136-.227.273-.352.352l-.409.409c-.125.125-.216.261-.353.352l-.397.397c-.091.137-.216.261-.352.398a2.436 2.436 0 0 0-.353.443c-.136.137-.272.273-.408.398-.125.136-.216.318-.352.443a3.163 3.163 0 0 1-.398.443c-.137.182-.227.318-.352.488a1.816 1.816 0 0 0-.352.488c-.136.136-.273.318-.409.488-.125.182-.261.318-.352.488-.137.182-.261.363-.398.534-.137.227-.227.398-.352.579-.137.182-.272.398-.398.579-.136.171-.227.398-.364.58a5.072 5.072 0 0 1-.398.613c-.136.227-.216.443-.352.67a3.707 3.707 0 0 0-.352.659c-.137.273-.272.488-.398.761-.136.216-.227.488-.364.75-.17.273-.261.488-.398.807-.136.261-.216.568-.352.841-.136.306-.273.613-.397.932-.136.306-.227.659-.364.977-.125.352-.261.704-.352 1.057-.17.409-.261.806-.397 1.204-.137.488-.262.931-.353 1.374-.182.534-.273 1.114-.397 1.647a38.18 38.18 0 0 0-.807 7.85v40.16h56.712l.364.045h.352l.398.046h.761l.216.045h.137l.398.046h.352l.352.045h.409l.352.046.398.034.352.045.397.045.364.045.397.045c.091.045.216.045.352.091l.353.045c.136.045.273.045.409.091.125 0 .216.045.352.079l.398.045c.136.045.216.091.352.091.137.045.273.091.398.091l.364.091c.125.045.261.091.398.091.125.034.216.079.352.125.136.045.261.091.352.136.137 0 .273.045.398.091.136.045.227.091.364.136.125.034.261.08.398.125.125.045.216.091.352.136.136.045.261.091.398.136.136.046.227.091.352.125.136.091.272.136.408.182.08.045.216.091.353.182.136.045.261.079.397.125.137.091.227.136.352.227.137.046.273.091.398.182.091.034.227.125.364.171.125.091.261.137.352.227.137.045.262.125.398.216a.846.846 0 0 1 .352.227c.137.091.272.125.398.216.091.092.227.182.364.273.125.045.216.125.398.216.091.136.216.227.352.318.137.079.227.17.398.261.091.091.227.227.363.307.125.136.216.227.352.364.136.079.261.216.398.352.136.091.216.216.352.352l.398.398c.091.136.227.273.363.397.125.137.261.318.397.455.125.17.216.306.353.477.136.182.261.364.397.534.091.182.227.364.352.579.136.182.273.398.364.625.125.216.261.489.397.704.137.272.216.579.352.852.137.352.262.704.398 1.011.137.443.273.898.352 1.341.182.75.318 1.499.409 2.26.045.613.079 1.238.079 1.863s-.034 1.193-.079 1.818c-.091.75-.227 1.466-.409 2.215a9.402 9.402 0 0 1-.352 1.295c-.136.352-.261.704-.398 1.011-.136.273-.216.58-.352.853-.136.261-.273.534-.397.75-.091.227-.227.443-.364.67a5.249 5.249 0 0 0-.352.568 5.09 5.09 0 0 1-.397.579c-.137.136-.227.318-.353.488-.136.136-.272.318-.397.443-.137.182-.227.318-.363.443a6.48 6.48 0 0 1-.398.397c-.137.137-.216.273-.352.409l-.398.352c-.137.091-.227.216-.352.307-.137.137-.272.227-.363.352-.125.091-.261.182-.398.318-.136.091-.216.17-.352.261-.137.091-.272.182-.398.273-.136.091-.273.171-.364.261-.125.091-.261.182-.398.272a2.971 2.971 0 0 0-.352.216c-.136.091-.261.137-.398.227-.091.045-.227.125-.352.17a3.985 3.985 0 0 1-.364.227c-.125.046-.261.137-.398.171a1.17 1.17 0 0 1-.352.182c-.136.091-.261.136-.397.227-.137.034-.227.079-.353.125-.136.091-.273.136-.408.182a1.463 1.463 0 0 0-.352.182c-.137.034-.262.079-.398.125-.137.045-.227.091-.352.136-.137.045-.273.091-.398.136-.137.046-.227.091-.364.125-.125 0-.261.045-.398.091a3.071 3.071 0 0 1-.352.137c-.137.045-.227.045-.352.091-.137.045-.273.091-.398.091-.136.034-.227.079-.364.125-.125 0-.261.045-.398.045l-.352.091c-.136.045-.273.045-.398.091l-.352.091c-.136 0-.273.045-.409.045l-.353.08-.352.045v.443h.352l.398.045.716.091.796.091.352.045c.137 0 .273 0 .364.046l.398.045c.125.034.216.034.352.08l.398.045.352.091c.136 0 .273.045.364.045.125.045.261.045.398.091.125.045.261.045.397.091.091.045.216.045.353.079.136.046.272.046.352.091.136.045.272.091.408.091.125.045.216.091.398.136l.352.091c.091.046.227.08.352.125.137.045.273.091.398.136.137.045.227.045.364.091.125.045.261.137.398.137.091.034.216.079.352.125.137.045.273.091.352.182.137.045.272.091.398.136.137.046.227.125.364.171.125.045.261.091.398.136.091.091.216.136.352.182.137.045.273.125.398.17.136.091.227.137.363.227.125.045.216.125.398.17.091.045.216.136.352.182.136.091.216.182.352.227.136.08.273.125.398.216.136.091.227.182.363.227.125.079.261.17.397.261.125.045.216.136.353.227.136.08.261.171.397.261.137.091.227.182.352.261.136.091.273.227.409.318.079.091.216.171.352.307.137.091.261.182.352.306.137.091.262.227.398.318.137.137.227.261.352.352.137.136.273.273.409.398.125.137.216.272.352.398.182.136.261.273.398.409.136.171.227.307.352.443.137.17.273.352.398.522.136.136.227.318.363.488.125.227.261.409.398.58.136.227.216.443.352.625.136.261.273.488.397.704.091.318.227.579.364.852.125.306.261.613.352.977.17.398.261.796.397 1.193.137.625.262 1.238.353 1.909.136.75.182 1.602.182 2.397 0 .886-.046 1.681-.182 2.488-.091.659-.216 1.33-.353 1.954-.136.443-.227.84-.397 1.283-.091.307-.227.659-.352.977-.136.306-.227.579-.364.84a7.798 7.798 0 0 1-.397.75c-.137.227-.216.443-.352.67-.137.182-.273.398-.398.579-.137.171-.227.352-.363.534-.125.171-.261.352-.398.534-.125.171-.216.307-.352.488a3.102 3.102 0 0 0-.398.443c-.091.125-.227.261-.352.398-.137.125-.273.216-.409.398-.125.136-.216.216-.352.352-.136.136-.216.227-.398.352-.091.091-.216.182-.352.318-.136.125-.273.216-.352.306-.136.091-.273.182-.409.307-.125.091-.216.182-.352.272-.136.091-.261.171-.397.261-.137.091-.227.182-.353.272a1.938 1.938 0 0 1-.397.216c-.137.091-.227.182-.363.272a1.994 1.994 0 0 0-.398.216c-.137.045-.216.136-.352.182-.137.091-.261.17-.352.216-.182.045-.273.136-.398.182-.137.091-.227.136-.363.227-.125.034-.261.125-.398.171-.136.046-.216.137-.352.182-.137.046-.272.137-.398.171a1.362 1.362 0 0 0-.364.182c-.125.045-.261.091-.398.136-.079.045-.216.125-.352.171a2.74 2.74 0 0 0-.352.137c-.137.045-.273.091-.398.136-.136.046-.227.091-.364.137a7.383 7.383 0 0 0-.398.125l-.352.136a.797.797 0 0 0-.352.091c-.136.045-.273.091-.398.091-.136.045-.273.079-.408.125-.08.045-.216.045-.352.091-.137.045-.262.045-.353.091-.136.045-.273.045-.397.091l-.398.091c-.091 0-.227.034-.364.079-.125 0-.216.045-.352.045l-.398.091-.352.045a1.24 1.24 0 0 1-.398.045c-.091.046-.227.046-.364.091-.125 0-.261.046-.352.046l-.398.045c-.136 0-.273.034-.398.034h-.716l-.398.045h-.352l-.397.045-.488.045h-.398c-.136 0-.227 0-.364.045h-60.881v78.774h58.758c.136 0 .261-.045.398-.045h.352c.136 0 .272-.045.352-.045.182 0 .273 0 .409-.045.125 0 .261 0 .352-.045h.398c.136 0 .227-.045.352-.045.136 0 .272-.045.397-.045.091 0 .227-.045.364-.045l.397-.045.352-.08.353-.045c.136 0 .273-.046.409-.046.125-.045.216-.045.352-.091l.398-.045.352-.091c.137-.045.273-.091.398-.091.137-.034.227-.034.364-.079l.398-.091.352-.091.352-.136c.137 0 .273-.045.398-.091.136-.034.227-.034.364-.079.125-.046.261-.091.398-.137l.352-.091c.136-.045.261-.091.398-.136l.352-.125c.136-.045.272-.045.408-.091.08-.045.216-.091.353-.136.136-.045.261-.091.397-.171l.352-.136c.137-.046.273-.091.398-.137.091-.045.227-.091.364-.136.125-.045.261-.125.352-.17.137-.046.262-.091.398-.137a1.52 1.52 0 0 1 .352-.182c.137-.079.272-.125.398-.171l.364-.182.398-.17c.091-.091.216-.137.352-.182a1.15 1.15 0 0 1 .398-.182c.091-.091.227-.125.363-.216.125-.045.216-.136.352-.182a1.19 1.19 0 0 1 .398-.17c.136-.091.216-.182.352-.227.136-.045.273-.136.398-.182.091-.08.227-.171.363-.216l.397-.227c.125-.045.216-.17.353-.216.136-.045.261-.136.397-.227.091-.091.227-.17.352-.216.136-.091.227-.182.364-.272.125-.091.261-.125.397-.216.137-.091.216-.182.352-.272l.398-.261c.091-.091.227-.182.352-.272.137-.079.273-.171.409-.261.125-.091.216-.182.352-.261.137-.091.261-.227.398-.318.091-.091.227-.17.352-.261.137-.136.273-.227.398-.318.091-.125.227-.216.363-.306.125-.137.261-.216.352-.353.136-.091.261-.182.398-.318.136-.125.227-.216.352-.352.136-.091.273-.216.409-.352.125-.091.216-.227.352-.352.125-.136.261-.227.397-.363.091-.125.216-.261.353-.352l.352-.398c.136-.136.273-.261.409-.397.125-.137.216-.273.352-.398.136-.136.261-.273.397-.443.137-.137.227-.273.352-.443a3.82 3.82 0 0 0 .398-.443c.137-.136.227-.318.363-.443.125-.182.261-.318.353-.488.136-.182.261-.318.397-.488.137-.182.227-.364.352-.534.182-.182.273-.363.398-.534.137-.182.227-.352.364-.534.125-.182.261-.398.398-.579.136-.171.216-.398.352-.579.137-.216.273-.398.352-.614.137-.227.272-.443.398-.625.136-.227.227-.443.364-.704.125-.227.261-.454.398-.67.136-.273.216-.534.352-.75.136-.273.272-.534.398-.807.136-.261.227-.534.363-.841.125-.306.261-.579.398-.886.125-.307.216-.67.352-.977.136-.353.261-.716.352-1.068.136-.352.272-.75.397-1.147.136-.443.273-.898.364-1.341.125-.522.261-1.011.352-1.545.182-.625.261-1.295.398-1.954.182-.932.306-1.954.397-2.931.091-1.113.137-2.261.137-3.419v-193.3h-.796v.052zm0 0" fill="#fff"/></svg>