<svg xmlns="http://www.w3.org/2000/svg" viewBox="-1014 -26.098 570 353.098"><path d="M-444 296.733c0 16.716-15.085 30.267-33.693 30.267h-502.614c-18.608.001-33.693-13.552-33.693-30.267V4.168c0-16.715 15.085-30.266 33.693-30.266h502.613c18.609 0 33.693 13.551 33.693 30.266l.001 292.565z" fill="#13457c"/><path d="M-523.801 150.863c0 66.559-53.758 120.961-120.961 120.961-66.558 0-120.957-54.402-120.957-120.961 0-66.563 53.758-120.961 120.321-120.961 67.839 0 121.597 54.398 121.597 120.961z" fill="#f7981d"/><path d="M-644.762 29.902c66.563 0 120.961 54.398 120.961 120.961 0 66.559-53.758 120.961-120.961 120.961-66.558 0-120.957-54.402-120.957-120.961" fill="#f7981d"/><path d="M-807.32 29.902C-873.238 30.543-927 84.3-927 150.863c0 66.559 53.762 120.961 120.961 120.961 31.359 0 59.519-12.16 81.277-31.363 4.481-3.84 8.321-8.321 12.16-12.797h-24.957c-3.203-3.84-6.402-8.321-8.961-12.16h42.879c2.563-3.84 5.121-8.321 7.039-12.801h-56.957c-1.921-3.84-3.839-8.321-5.121-12.801h66.559c3.84-12.16 6.402-24.961 6.402-38.398 0-8.961-1.281-17.282-2.562-25.602h-74.239c.641-4.48 1.918-8.32 3.2-12.801h66.558c-1.277-4.48-3.199-8.961-5.117-12.801h-56.32c1.918-4.476 4.48-8.32 7.039-12.796h42.879c-2.559-4.481-5.758-8.961-9.598-12.801h-23.68c3.84-4.481 7.68-8.321 12.161-12.16-21.122-19.84-49.922-31.36-81.282-31.36 0-1.281 0-1.281-.64-1.281z" fill="#cb2026"/><path d="M-806.039 271.824c31.359 0 59.519-12.16 81.277-31.363 4.481-3.84 8.321-8.321 12.16-12.797h-24.957c-3.203-3.84-6.402-8.321-8.961-12.16h42.879c2.563-3.84 5.121-8.321 7.039-12.801h-56.957c-1.921-3.84-3.839-8.321-5.121-12.801h66.559c3.84-12.16 6.402-24.961 6.402-38.398 0-8.961-1.281-17.282-2.562-25.602h-74.239c.641-4.48 1.918-8.32 3.2-12.801h66.558c-1.277-4.48-3.199-8.961-5.117-12.801h-56.32c1.918-4.476 4.48-8.32 7.039-12.796h42.879c-2.559-4.481-5.758-8.961-9.598-12.801h-23.68c3.84-4.481 7.68-8.321 12.161-12.16-21.122-19.84-49.922-31.36-81.282-31.36h-.64" fill="#cb2026"/><path d="M-763.16 181.582l1.922-10.879c-.641 0-1.922.64-3.203.64-4.481 0-5.118-2.562-4.481-3.839l3.844-22.403h7.039l1.918-12.16h-6.399l1.282-7.68h-12.801s-7.68 42.243-7.68 47.36c0 7.679 4.481 10.883 10.239 10.883 3.839 0 7.039-1.282 8.32-1.922zm4.48-20.481c0 17.922 12.16 22.403 22.399 22.403 9.601 0 13.441-1.922 13.441-1.922l2.559-12.16s-7.039 3.199-13.438 3.199c-14.082 0-11.519-10.239-11.519-10.239H-719s1.922-8.32 1.922-11.519c0-8.32-4.481-18.563-18.563-18.563-13.437-1.277-23.039 12.801-23.039 28.801zm22.399-18.558c7.043 0 5.761 8.32 5.761 8.961h-14.082c0-.641 1.282-8.961 8.321-8.961zM-655 181.582l2.559-14.078s-6.399 3.199-10.879 3.199c-8.961 0-12.801-7.039-12.801-14.723 0-15.359 7.68-23.68 16.641-23.68 6.402 0 11.519 3.84 11.519 3.84l1.922-13.437s-7.68-3.199-14.723-3.199c-14.718 0-29.437 12.796-29.437 37.117 0 16 7.679 26.883 23.039 26.883 5.121 0 12.16-1.922 12.16-1.922zm-178.559-50.559c-8.961 0-15.363 2.559-15.363 2.559l-1.918 10.879s5.762-2.559 14.078-2.559c4.481 0 8.321.641 8.321 4.48 0 2.559-.637 3.2-.637 3.2h-5.762c-10.879 0-23.039 4.48-23.039 19.199 0 11.519 7.68 14.082 12.16 14.082 8.957 0 12.797-5.762 13.438-5.762l-.641 5.121h11.524l5.117-35.199c0-15.359-12.797-16-17.278-16zm2.559 28.801c0 1.918-1.281 12.156-8.961 12.156-3.84 0-5.117-3.199-5.117-5.117 0-3.199 1.918-7.68 11.519-7.68 1.918.641 2.559.641 2.559.641zm26.879 23.039c3.199 0 19.199.641 19.199-16.641 0-16-15.359-12.8-15.359-19.199 0-3.199 2.562-4.48 7.043-4.48 1.918 0 8.957.64 8.957.64l1.922-11.519s-4.481-1.282-12.161-1.282c-9.601 0-19.199 3.84-19.199 16.641 0 14.719 16 13.438 16 19.199 0 3.84-4.48 4.481-7.679 4.481-5.762 0-11.524-1.922-11.524-1.922l-1.918 11.519c.641 1.282 3.84 2.563 14.719 2.563zm255.359-62.082l-2.558 17.281s-5.121-6.398-12.16-6.398c-11.52 0-21.758 14.078-21.758 30.718 0 10.239 5.117 21.122 16 21.122 7.679 0 12.16-5.122 12.16-5.122l-.641 4.481h12.797l9.602-61.441-13.442-.641zm-5.758 33.922c0 7.039-3.199 16-10.242 16-4.476 0-7.039-3.84-7.039-10.242 0-10.239 4.481-16.637 10.242-16.637 4.481 0 7.039 3.199 7.039 10.879zm-348.8 27.519l7.679-46.082 1.282 46.082h8.961l16.636-46.082-7.039 46.082h13.442l10.238-61.441h-21.117l-12.801 37.762-.641-37.762h-18.558l-10.242 61.441h12.16zm198.398 0c3.844-21.121 4.481-38.398 13.442-35.199 1.281-8.32 3.199-11.519 4.48-14.723h-2.559c-5.761 0-10.242 7.68-10.242 7.68l1.281-7.039h-12.16l-8.32 49.922h14.078v-.641zm79.363-51.199c-8.961 0-15.363 2.559-15.363 2.559l-1.918 10.879s5.762-2.559 14.078-2.559c4.481 0 8.321.641 8.321 4.48 0 2.559-.637 3.2-.637 3.2h-5.762c-10.879 0-23.039 4.48-23.039 19.199 0 11.519 7.68 14.082 12.16 14.082 8.957 0 12.797-5.762 13.438-5.762l-.641 5.121h11.524l5.117-35.199c.64-15.359-12.797-16-17.278-16zm3.2 28.801c0 1.918-1.282 12.156-8.961 12.156-3.84 0-5.121-3.199-5.121-5.117 0-3.199 1.921-7.68 11.519-7.68 1.922.641 1.922.641 2.563.641zm24.961 22.398c3.839-21.121 4.476-38.398 13.437-35.199 1.281-8.32 3.199-11.519 4.481-14.723h-2.559c-5.762 0-10.242 7.68-10.242 7.68l1.281-7.039h-12.16l-8.32 49.922h14.082v-.641z" fill="#fff"/></svg>