<svg xmlns="http://www.w3.org/2000/svg" viewBox="-1014 -26.098 570 353.098"><path d="M-444 296.733c0 16.716-15.085 30.267-33.693 30.267h-502.614c-18.608.001-33.693-13.552-33.693-30.267V4.168c0-16.715 15.085-30.266 33.693-30.266h502.613c18.609 0 33.693 13.551 33.693 30.266l.001 292.565z" fill="#1c3663"/><path d="M-870.489 110.462c-1.598-3.294-4.211-5.958-7.407-7.989-3.394-2.08-7.308-3.53-11.853-4.347-4.595-.83-9.871-1.214-16.064-1.264h-28.4c-2.948.049-5.858 2.328-6.527 5.177l-19.111 83.268c-.682 2.799 1.152 5.177 4.112 5.177h13.587c2.96 0 5.908-2.279 6.54-5.177l4.694-20.226c.62-2.812 3.53-5.128 6.478-5.128h3.926c16.634-.05 29.503-3.443 38.742-10.255 9.339-6.824 13.897-15.829 13.897-26.951-.001-4.89-.781-9.002-2.614-12.285zm-29.33 27.187c-4.112 3.047-9.822 4.546-17.216 4.546h-3.295c-2.948 0-4.793-2.316-4.162-5.178l4.112-17.699c.582-2.812 3.53-5.177 6.49-5.177h4.447c5.227 0 9.19.867 11.853 2.651 2.613 1.697 3.914 4.458 3.914 8.088.051 5.511-2.068 9.771-6.143 12.769zm186.999-10.838l-54.187 91.678c-1.746 2.861-5.611 5.128-8.509 5.128l-14.132.05c-2.898 0-3.877-2.316-2.081-5.178l12.052-20.994s.966-1.214.087-8.075c-1.833-12.386-11.073-65.025-11.073-65.025-.681-2.861 1.115-5.227 4.063-5.227h12.187c3.728 0 6.725 2.465 7.407 5.326l6.044 36.525 2.279.05c1.882-3.394 21.377-36.822 21.377-36.822 1.846-2.811 5.623-5.177 8.571-5.177 0 0 13.067.05 16.299 0 4.843-.099-.384 7.741-.384 7.741zm89.362-16.014c-1.697-3.332-4.211-5.995-7.456-8.076-3.332-2.031-7.258-3.493-11.853-4.31-4.496-.818-9.871-1.251-16.014-1.251h-28.45c-2.948.037-5.796 2.366-6.477 5.165l-19.111 83.318c-.681 2.811 1.214 5.177 4.112 5.177l13.6-.049c2.898.049 5.895-2.316 6.527-5.128l4.645-20.226c.681-2.799 3.579-5.178 6.527-5.178h3.877c16.646 0 29.564-3.431 38.903-10.206 9.141-6.874 13.785-15.866 13.785-27-.051-4.879-.881-8.991-2.615-12.236zm-29.317 27.235c-4.112 2.96-9.822 4.459-17.179 4.459h-3.381c-2.91 0-4.843-2.378-4.162-5.177l4.112-17.662c.62-2.811 3.58-5.177 6.528-5.177h4.397c5.227 0 9.153.867 11.853 2.613 2.613 1.747 3.926 4.496 3.975 8.125 0 5.512-2.08 9.772-6.143 12.819zm-152.12-15.667c-5.128-2.911-13.253-4.31-24.289-4.31-5.511 0-10.973.384-16.497 1.263-4.063.619-4.447.718-6.961 1.301-5.177 1.115-5.995 6.292-5.995 6.292l-1.648 6.824c-.916 4.348 1.598 4.199 2.614 3.815 2.266-.669 3.53-1.35 8.125-2.366 4.446-1.015 9.091-1.746 12.77-1.696 5.425 0 9.586.533 12.386 1.746 2.712 1.152 4.063 3.195 4.063 6.143l-.235 1.932-1.932 1.214c-7.741.483-13.315 1.202-20.09 2.18-6.626.917-12.423 2.564-17.216 4.731-5.177 2.279-9.054 5.376-11.704 9.24-2.613 3.926-3.926 8.67-3.926 14.231 0 5.276 1.883 9.574 5.561 12.918 3.679 3.282 8.522 4.88 14.33 4.88 3.666 0 6.527-.285 8.509-.768l6.626-2.279 5.561-3.096 5.14-3.381.037.099-.483 2.168-.05.099c-.52 2.662 1.065 4.843 3.629 5.078l.05.099h12.683l.136-.099c2.712-.334 5.277-2.514 5.858-5.078l9.921-42.966.532-3.48.235-3.282c.051-6.058-2.6-10.554-7.74-13.452zm-21.91 48.279l-2.13 2.811-5.376 2.749c-2.514 1.016-4.88 1.549-7.109 1.549-3.332 0-5.945-.483-7.741-1.499l-2.613-5.078c0-2.762.632-4.93 1.982-6.626l5.759-3.914c2.465-.83 5.524-1.548 9.004-2.044 3.097-.384 9.24-1.102 10.058-1.102l.929 1.635c-.2.929-1.945 8.225-2.763 11.519zm269.003-48.23c-5.177-2.861-13.265-4.31-24.288-4.31-5.475 0-10.986.384-16.448 1.301-4.112.582-4.508.73-7.023 1.263-5.177 1.115-5.945 6.292-5.945 6.292l-1.697 6.824c-.917 4.348 1.549 4.149 2.712 3.815 2.217-.681 3.481-1.3 8.026-2.365 4.409-1.016 9.103-1.746 12.819-1.746 5.376 0 9.537.632 12.336 1.796 2.762 1.152 4.112 3.232 4.112 6.143l-.235 1.932-1.932 1.214c-7.791.483-13.401 1.201-20.078 2.167-6.589.929-12.435 2.526-17.278 4.744-5.177 2.278-9.041 5.375-11.704 9.239-2.613 3.926-3.926 8.67-3.926 14.182 0 5.276 1.895 9.624 5.574 12.968 3.716 3.232 8.509 4.88 14.318 4.88 3.679 0 6.528-.235 8.559-.768l6.577-2.229 5.623-3.096 5.078-3.431.099.099-.483 2.167-.049.05.049.05c-.632 2.663.966 4.843 3.617 5.078v.049h12.633l.198-.049c2.65-.335 5.227-2.514 5.796-5.128l9.921-42.867.532-3.53.297-3.282c.001-6.057-2.613-10.553-7.79-13.452zm-21.873 48.28l-2.229 2.848-5.264 2.762c-2.527.966-4.942 1.498-7.122 1.498-3.431 0-5.995-.483-7.741-1.449l-2.651-5.078c0-2.811.669-4.979 1.982-6.676 1.3-1.598 3.282-2.948 5.797-3.926 2.427-.818 5.474-1.499 8.954-1.982 3.096-.434 9.24-1.115 10.02-1.152l.966 1.684c-.148.918-1.894 8.176-2.712 11.471zm72.914-67.688l-18.195 82.538-.681 1.016c-1.065 2.279-3.332 4.161-5.846 4.161h-12.634l-.235-.285c-2.427-.347-3.975-2.279-3.393-4.843l-.05-.05.533-2.366 17.08-77.41.582-2.712.682-1.065c1.115-2.267 3.381-4.112 5.846-4.112h12.2c2.947-.049 4.693 2.279 4.111 5.128zm45.183-9.822" fill="#fff"/></svg>