<svg xmlns="http://www.w3.org/2000/svg" viewBox="-49 220.451 570 353.098"><path d="M521 543.282c0 16.716-15.085 30.267-33.693 30.267H-15.307C-33.915 573.55-49 559.997-49 543.282V250.717c0-16.715 15.085-30.266 33.693-30.266h502.613c18.609 0 33.693 13.551 33.693 30.266L521 543.282z" fill="#3957a7"/><path d="M190.627 326.667l-21.055 131.02h33.658l21.041-131.02h-33.644zm101.514 53.371c-11.76-5.805-18.971-9.731-18.971-15.669.14-5.399 6.095-10.931 19.391-10.931 10.931-.275 18.963 2.295 25.064 4.851l3.055 1.362 4.571-27.409c-6.643-2.57-17.188-5.406-30.204-5.406-33.229 0-56.63 17.278-56.777 41.991-.273 18.239 16.751 28.356 29.494 34.429 13.023 6.228 17.454 10.264 17.454 15.797-.147 8.496-10.53 12.414-20.213 12.414-13.424 0-20.64-2.015-31.586-6.747l-4.43-2.022-4.704 28.489c7.905 3.51 22.445 6.607 37.533 6.762 35.314 0 58.299-17.019 58.587-43.353.114-14.45-8.866-25.514-28.264-34.558zm119.386-52.963h-26.032c-8.025 0-14.125 2.302-17.594 10.538l-49.987 120.075h35.314l9.731-25.996h39.512l5.041 26.102h31.151l-27.136-130.719zm-38.775 78.379c.681.07 13.55-42.433 13.55-42.433l10.257 42.433h-23.807zm-231.297-78.787l-32.97 89.015-3.595-17.551c-6.095-20.256-25.211-42.273-46.54-53.204l30.195 112.627h35.603l52.915-130.873h-35.608v-.014zm0 0" fill="#fff"/><path d="M93.797 343.565c-2.568-9.989-10.762-16.729-21.889-16.87H19.694l-.541 2.421c40.734 10.04 74.926 40.939 86.01 70.005l-11.366-55.556zm0 0" fill="#eaa200"/></svg>